<svg width="11" height="8" viewBox="0 0 11 8" fill="none" xmlns="http://www.w3.org/2000/svg">
<path d="M10.0576 0.722883C9.71553 0.424478 9.30595 0.213171 8.86395 0.107044C8.42195 0.000917481 7.96071 0.00313953 7.51977 0.113542C7.09277 0.225815 6.69284 0.422585 6.34379 0.692125C5.99475 0.961665 5.70373 1.29847 5.48811 1.68244C5.27932 1.29499 4.9933 0.954106 4.64756 0.680711C4.30183 0.407316 3.90368 0.20716 3.47754 0.0925309C3.03938 -0.0225382 2.57981 -0.0304017 2.13794 0.0695962C1.69607 0.169594 1.285 0.374497 0.939736 0.66686C0.492927 1.11892 0.188367 1.69116 0.0634801 2.31329C-0.0614073 2.93541 -0.00118429 3.58034 0.23674 4.16884C0.754899 5.3451 1.65658 6.31256 2.79565 6.9144C3.60561 7.43841 4.50692 7.80663 5.45297 8C6.40266 7.81934 7.30921 7.46043 8.12435 6.9424C9.27231 6.35672 10.185 5.39794 10.7114 4.22486C10.9582 3.64143 11.0279 2.99867 10.9117 2.37619C10.7955 1.75371 10.4985 1.17886 10.0576 0.722883Z" fill="#FF5C5C"/>
</svg>
