<svg width="11" height="4" viewBox="0 0 11 4" fill="none" xmlns="http://www.w3.org/2000/svg">
<path d="M0 3.10676C0.934339 3.43819 1.9107 3.63748 2.90058 3.69882C3.88097 3.76367 4.86516 3.65632 5.80823 3.38165C6.74694 3.11558 7.62585 2.67297 8.39753 2.0777C8.79374 1.78932 9.16524 1.46869 9.50824 1.11911C9.85489 0.78079 10.152 0.379032 10.4916 0.0195634C10.4975 0.0133802 10.5047 0.00845941 10.5126 0.00509788C10.5205 0.00173635 10.529 0 10.5376 0C10.5462 0 10.5547 0.00173635 10.5626 0.00509788C10.5705 0.00845941 10.5776 0.0133802 10.5836 0.0195634C10.5935 0.0300357 10.5991 0.0439035 10.5991 0.0583245C10.5991 0.0727455 10.5935 0.086624 10.5836 0.0970963C10.3048 0.516024 10.0049 0.920639 9.6851 1.30941C9.34778 1.68541 8.98111 2.03423 8.58854 2.35259C7.79273 2.99031 6.87238 3.45599 5.88606 3.71998C4.90304 3.98802 3.87734 4.0646 2.86521 3.94552C1.86943 3.82925 0.900636 3.54564 0 3.10676Z" fill="#4F2014"/>
</svg>
