<svg width="10" height="14" viewBox="0 0 10 14" fill="none" xmlns="http://www.w3.org/2000/svg">
<path d="M2.38135 0.138507C1.87665 -0.02157 1.33801 -0.0433343 0.82196 0.0755141C0.566245 0.139909 0.342687 0.294605 0.192823 0.510847C0.0429586 0.727089 -0.0230177 0.990177 0.00714578 1.25123C0.189777 2.03504 1.32069 2.09103 1.88263 2.65089C2.07569 2.88443 2.20546 3.16336 2.25957 3.46107C2.31367 3.75877 2.29031 4.06532 2.1917 4.35148C1.99729 4.92249 1.76256 5.47908 1.48927 6.01708C0.941455 7.3745 0.891896 8.88096 1.34932 10.2712C1.80675 11.6615 2.74183 12.8463 3.98991 13.6172C4.44424 13.9317 5.00278 14.0595 5.54931 13.9741C6.25173 13.8062 6.63105 13.1553 6.95416 12.5745C7.93634 11.0007 8.733 9.31937 9.32837 7.5637C9.81304 5.96809 10.382 3.23875 8.68214 2.28698C6.68587 1.29782 4.56732 0.575428 2.38135 0.138507Z" fill="#A05E47"/>
</svg>
