<svg width="146" height="146" viewBox="0 0 146 146" fill="none" xmlns="http://www.w3.org/2000/svg">
<g style="mix-blend-mode:multiply" opacity="0.5">
<path d="M140.411 131.374L20.4843 144.928C18.9741 145.093 17.4596 144.657 16.2712 143.714C15.0827 142.771 14.3167 141.398 14.1403 139.895L0.535517 20.4045C0.369776 18.8998 0.807935 17.3909 1.75443 16.2069C2.70092 15.0228 4.07895 14.2597 5.58797 14.0839L125.522 0.536122C127.03 0.369184 128.544 0.804343 129.732 1.74642C130.919 2.6885 131.684 4.06081 131.859 5.56321L145.464 125.053C145.631 126.558 145.194 128.068 144.247 129.253C143.3 130.437 141.921 131.2 140.411 131.374Z" stroke="#808285" stroke-miterlimit="10"/>
<path d="M122.252 8.82148L9.87741 21.5182L20.6976 116.577L133.072 103.88L122.252 8.82148Z" stroke="#808285" stroke-miterlimit="10"/>
<path d="M36.157 131.374V131.287L36.5117 131.247V131.314C36.5169 131.381 36.5363 131.447 36.5686 131.507C36.6009 131.567 36.6453 131.619 36.6991 131.661C36.757 131.701 36.8222 131.729 36.8911 131.744C36.96 131.759 37.0312 131.76 37.1006 131.747C37.1751 131.744 37.248 131.725 37.3139 131.69C37.3799 131.655 37.4373 131.607 37.482 131.547C37.5723 131.419 37.6084 131.261 37.5824 131.107V130.98C37.5782 130.9 37.5577 130.821 37.522 130.749C37.4863 130.677 37.4363 130.613 37.3749 130.56C37.3144 130.512 37.2444 130.477 37.1695 130.458C37.0946 130.438 37.0164 130.435 36.94 130.447H36.766L36.7258 130.127H36.8998C36.971 130.121 37.0403 130.101 37.1035 130.067C37.1667 130.034 37.2226 129.989 37.2679 129.934C37.3514 129.811 37.3849 129.66 37.3616 129.514V129.42C37.3508 129.278 37.2863 129.144 37.1809 129.047C37.1283 129.004 37.0672 128.972 37.0015 128.953C36.9358 128.935 36.867 128.931 36.7994 128.94C36.7314 128.943 36.6648 128.96 36.6042 128.991C36.5435 129.021 36.4904 129.065 36.4483 129.118C36.4063 129.172 36.3764 129.233 36.3608 129.299C36.3451 129.365 36.3441 129.434 36.3578 129.5V129.574L36.0165 129.614V129.527C35.9999 129.419 36.0056 129.309 36.0332 129.204C36.0608 129.098 36.1098 129 36.1771 128.914C36.33 128.744 36.544 128.641 36.7727 128.627C36.8888 128.606 37.0081 128.608 37.1232 128.634C37.2383 128.661 37.3468 128.71 37.4419 128.78C37.528 128.852 37.5986 128.94 37.6492 129.04C37.6999 129.14 37.7295 129.249 37.7363 129.36V129.467C37.7564 129.615 37.7332 129.765 37.6694 129.9C37.6051 130.024 37.5079 130.128 37.3883 130.2C37.5463 130.235 37.6866 130.325 37.7832 130.454C37.8829 130.596 37.945 130.761 37.9638 130.934V131.047C37.9799 131.225 37.9452 131.403 37.8637 131.562C37.7823 131.721 37.6575 131.854 37.5036 131.945C37.3497 132.037 37.173 132.083 36.994 132.078C36.8149 132.074 36.6408 132.019 36.4916 131.921C36.3993 131.859 36.3215 131.778 36.2637 131.684C36.2059 131.59 36.1695 131.484 36.157 131.374Z" fill="#808285"/>
<path d="M40.1186 131.027L40.1922 131.694L39.8375 131.734L39.7572 131.067L38.4991 131.207V130.887L39.2352 128.407L39.5899 128.367L38.8538 130.847L39.7572 130.747L39.6501 129.834L40.0115 129.794L40.1119 130.707L40.4733 130.66L40.5134 130.98L40.1186 131.027Z" fill="#808285"/>
<path d="M41.022 130.847V130.787L41.3633 130.747V130.78C41.3669 130.847 41.3842 130.912 41.4142 130.972C41.4441 131.031 41.486 131.084 41.5373 131.127C41.5935 131.165 41.6567 131.192 41.7233 131.206C41.7899 131.219 41.8586 131.22 41.9254 131.207C42.2667 131.167 42.4139 130.94 42.3604 130.54V130.227C42.3537 130.056 42.2902 129.892 42.1797 129.76C42.1274 129.712 42.0645 129.676 41.9959 129.657C41.9273 129.637 41.855 129.634 41.7849 129.647C41.6757 129.657 41.5726 129.701 41.4904 129.774C41.4095 129.842 41.3551 129.936 41.3365 130.04L41.022 130.08L40.8146 128.247L42.4206 128.067V128.393L41.1492 128.533L41.2696 129.6C41.3198 129.524 41.3889 129.462 41.4704 129.42C41.5599 129.367 41.6607 129.335 41.7648 129.327C41.876 129.305 41.9907 129.309 42.0999 129.34C42.2091 129.37 42.3097 129.425 42.3939 129.5C42.5686 129.68 42.671 129.917 42.6816 130.167L42.7218 130.534C42.7638 130.778 42.7086 131.029 42.5679 131.234C42.4962 131.326 42.4053 131.402 42.3013 131.456C42.1973 131.51 42.0828 131.541 41.9656 131.547C41.8504 131.571 41.7315 131.571 41.6163 131.546C41.5012 131.522 41.3923 131.475 41.2964 131.407C41.2118 131.34 41.1433 131.255 41.0959 131.158C41.0484 131.061 41.0232 130.955 41.022 130.847Z" fill="#808285"/>
<path d="M60.8771 126.807L60.8303 126.407L61.3589 125.9L61.7136 125.86L62.0884 129.194L61.7404 129.234L61.4058 126.3L60.8771 126.807Z" fill="#808285"/>
<path d="M62.704 128.234V128.067C62.6872 127.95 62.6872 127.831 62.704 127.713C62.7258 127.583 62.7617 127.456 62.8111 127.333L63.4134 125.673L63.7814 125.627L63.226 127.18C63.2693 127.141 63.3191 127.109 63.3732 127.087C63.4393 127.059 63.5092 127.041 63.5807 127.033C63.6923 127.017 63.8061 127.025 63.9146 127.056C64.023 127.087 64.1236 127.141 64.2097 127.213C64.3907 127.377 64.5011 127.604 64.5175 127.847V128.014C64.54 128.191 64.5194 128.372 64.4573 128.54C64.3946 128.683 64.2954 128.807 64.1695 128.9C64.0328 128.995 63.8736 129.052 63.7078 129.067C63.5898 129.085 63.4694 129.078 63.3543 129.047C63.2391 129.016 63.1316 128.961 63.0386 128.887C62.9411 128.806 62.8612 128.707 62.8037 128.595C62.7461 128.482 62.7122 128.359 62.704 128.234ZM64.1762 128.074V127.907C64.1637 127.745 64.0923 127.593 63.9755 127.48C63.9162 127.433 63.8482 127.398 63.7754 127.378C63.7026 127.357 63.6264 127.351 63.5512 127.359C63.4759 127.368 63.4032 127.391 63.337 127.428C63.2709 127.465 63.2127 127.514 63.1657 127.573C63.0736 127.708 63.0376 127.873 63.0654 128.034V128.194C63.0747 128.36 63.1463 128.517 63.2661 128.634C63.3227 128.684 63.39 128.721 63.4631 128.742C63.5361 128.763 63.6129 128.767 63.6877 128.754C63.7641 128.748 63.8383 128.726 63.9053 128.689C63.9723 128.653 64.0305 128.602 64.0759 128.54C64.166 128.402 64.2017 128.236 64.1762 128.074Z" fill="#808285"/>
<path d="M56.4136 131.807C57.082 131.128 57.4758 130.228 57.5198 129.278C57.5638 128.328 57.255 127.395 56.6522 126.658C56.0494 125.92 55.1951 125.43 54.2524 125.28C53.3098 125.131 52.3449 125.333 51.5422 125.848C50.7395 126.362 50.1553 127.153 49.9013 128.07C49.6472 128.987 49.7411 129.965 50.165 130.817C50.5889 131.669 51.3131 132.335 52.1991 132.689C53.0852 133.043 54.071 133.059 54.9681 132.734L57.0828 133.554L56.4136 131.807Z" stroke="#808285" stroke-linecap="round" stroke-linejoin="round"/>
<path d="M133.656 105.611L21.2814 118.308L21.4224 119.546L133.797 106.85L133.656 105.611Z" fill="#808285"/>
<path d="M70.8433 115.558L21.5982 121.122L21.7392 122.361L70.9843 116.797L70.8433 115.558Z" fill="#808285"/>
<path d="M91.8612 116.033L21.9166 123.936L22.0576 125.175L92.0022 117.272L91.8612 116.033Z" fill="#808285"/>
<path d="M134.85 116.112L129.323 116.739L130.373 125.94L132.916 123.72L135.894 125.313L134.85 116.112Z" stroke="#808285" stroke-miterlimit="10"/>
<path d="M32.0614 128.414C31.7057 128.169 31.2959 128.014 30.8671 127.962C30.4382 127.91 30.0031 127.962 29.5988 128.114C29.2074 128.265 28.8509 128.493 28.5507 128.785C28.2505 129.078 28.0129 129.427 27.8522 129.814C27.6112 129.47 27.3034 129.179 26.947 128.957C26.5905 128.735 26.1929 128.586 25.7776 128.52C25.3498 128.458 24.9132 128.501 24.5054 128.643C24.0975 128.786 23.7304 129.025 23.4354 129.34C23.0543 129.816 22.8234 130.394 22.7722 131C22.721 131.607 22.8517 132.215 23.1477 132.747C23.7582 133.811 24.7176 134.632 25.8646 135.074C26.6864 135.486 27.5786 135.739 28.4946 135.821V135.821C29.3712 135.546 30.1883 135.109 30.9037 134.534C31.924 133.855 32.6835 132.851 33.0585 131.687C33.2339 131.104 33.2328 130.483 33.0555 129.901C32.8781 129.318 32.5323 128.801 32.0614 128.414V128.414Z" stroke="#808285" stroke-linecap="round" stroke-linejoin="round"/>
</g>
</svg>
