<svg width="22" height="20" viewBox="0 0 22 20" fill="none" xmlns="http://www.w3.org/2000/svg">
<path d="M4.82651 4.2997C4.52882 4.2997 4.24332 4.4071 4.03282 4.59828C3.82232 4.78946 3.70406 5.04876 3.70406 5.31912V14.4939C3.70406 14.7643 3.82232 15.0236 4.03282 15.2148C4.24332 15.406 4.52882 15.5134 4.82651 15.5134H17.1735C17.4712 15.5134 17.7567 15.406 17.9672 15.2148C18.1777 15.0236 18.2959 14.7643 18.2959 14.4939V5.31912C18.2959 5.04876 18.1777 4.78946 17.9672 4.59828C17.7567 4.4071 17.4712 4.2997 17.1735 4.2997H14.9286" stroke="#000001" stroke-linecap="round" stroke-linejoin="round"/>
<path d="M3.70406 8.3774H18.2959" stroke="#000001" stroke-linecap="round" stroke-linejoin="round"/>
<path d="M7.07138 2.26085V6.33855" stroke="#000001" stroke-linecap="round" stroke-linejoin="round"/>
<path d="M14.9286 2.26085V6.33855" stroke="#000001" stroke-linecap="round" stroke-linejoin="round"/>
<path d="M7.07138 4.2997H12.6836" stroke="#000001" stroke-linecap="round" stroke-linejoin="round"/>
</svg>
