<svg width="13" height="15" viewBox="0 0 13 15" fill="none" xmlns="http://www.w3.org/2000/svg">
<path d="M2.0136 12.9676C1.28629 12.5208 0.678062 11.9056 0.240638 11.1743C0.0291127 10.8021 -0.0461919 10.3683 0.0275751 9.94695C0.101342 9.52558 0.319606 9.14278 0.645116 8.8639C1.01589 8.61539 1.52149 8.52808 1.75069 8.15196C2.04057 7.6751 1.71025 7.07734 1.64283 6.51988C1.63547 6.00747 1.81211 5.5093 2.14091 5.11521C2.46971 4.72113 2.92903 4.45706 3.43602 4.37064C3.76974 4.34276 4.08819 4.21911 4.35284 4.01467C4.87192 3.47064 4.22475 2.40274 4.75732 1.87214C5.16854 1.46916 5.95053 1.7311 6.36849 1.33483C6.5977 1.11991 6.63815 0.777371 6.80668 0.515432C6.96948 0.308172 7.1898 0.153128 7.44028 0.0695455C7.69076 -0.0140373 7.96037 -0.022475 8.21562 0.0452876C8.70936 0.194444 9.1679 0.441139 9.56388 0.770658L11.5863 2.19453C12.0015 2.45232 12.365 2.78485 12.6581 3.17512C13.2244 4.05497 12.9885 5.19004 12.6581 6.21093C12.1361 8.13988 11.2708 9.95978 10.1032 11.584C9.11005 12.9508 7.72274 13.984 6.12581 14.546C4.73036 15.043 3.15289 13.7736 2.0136 12.9676Z" fill="#A05E47"/>
</svg>
