<svg width="13" height="13" viewBox="0 0 13 13" fill="none" xmlns="http://www.w3.org/2000/svg">
<g clip-path="url(#clip0_311_1787)">
<path d="M11.375 5.41675C11.375 9.20842 6.5 12.4584 6.5 12.4584C6.5 12.4584 1.625 9.20842 1.625 5.41675C1.625 4.12382 2.13861 2.88385 3.05285 1.96961C3.96709 1.05537 5.20707 0.541753 6.5 0.541753C7.79293 0.541753 9.03291 1.05537 9.94715 1.96961C10.8614 2.88385 11.375 4.12382 11.375 5.41675Z" fill="#B0B1BC" stroke="#B0B1BC" stroke-width="1.5" stroke-linecap="round" stroke-linejoin="round"/>
<path d="M6.5 7.04175C7.39746 7.04175 8.125 6.31422 8.125 5.41675C8.125 4.51929 7.39746 3.79175 6.5 3.79175C5.60254 3.79175 4.875 4.51929 4.875 5.41675C4.875 6.31422 5.60254 7.04175 6.5 7.04175Z" fill="white" stroke="white" stroke-linecap="round" stroke-linejoin="round"/>
</g>
<defs>
<clipPath id="clip0_311_1787">
<rect width="13" height="13" rx="4" fill="white"/>
</clipPath>
</defs>
</svg>
