<svg width="43" height="45" viewBox="0 0 43 45" fill="none" xmlns="http://www.w3.org/2000/svg">
<path d="M23.0685 30.9093L29.9106 4.88149C30.129 4.05087 30.5095 3.27124 31.0304 2.58712C31.5512 1.903 32.2022 1.32778 32.9461 0.894318C33.6901 0.460851 34.5125 0.177622 35.3663 0.0607999C36.2201 -0.0560227 37.0887 -0.004154 37.9224 0.213453C38.7561 0.43106 39.5386 0.81014 40.2253 1.32905C40.9119 1.84796 41.4893 2.49654 41.9244 3.23775C42.3594 3.97896 42.6437 4.79828 42.761 5.64895C42.8782 6.49962 42.8262 7.36497 42.6078 8.19559L34.2106 40.1174C33.8307 41.5616 32.9663 42.8329 31.761 43.7201C30.5557 44.6072 29.0821 45.0569 27.5848 44.9942C27.0845 44.9942 15.0297 44.3543 0 34.4592L7.22749 23.5536C12.0889 26.8164 17.4343 29.2985 23.0685 30.9093Z" fill="#FAA263"/>
</svg>
