<svg width="1" height="2" viewBox="0 0 1 2" fill="none" xmlns="http://www.w3.org/2000/svg">
<path d="M0.23726 2C0.175246 2 0.115771 1.97545 0.07192 1.93177C0.0280692 1.88808 0.00343747 1.82882 0.00343747 1.76704V0.280193C-0.0024643 0.245781 -0.000750171 0.2105 0.0084535 0.176815C0.0176572 0.143129 0.0341302 0.11185 0.056725 0.0851662C0.0793197 0.0584824 0.107492 0.0370439 0.139269 0.0223318C0.171046 0.00761971 0.205661 0 0.240702 0C0.275743 0 0.310358 0.00761971 0.342135 0.0223318C0.373912 0.0370439 0.402085 0.0584824 0.424679 0.0851662C0.447274 0.11185 0.463747 0.143129 0.472951 0.176815C0.482154 0.2105 0.483869 0.245781 0.477967 0.280193V1.76704C0.476176 1.82944 0.450025 1.8887 0.405077 1.93221C0.360129 1.97571 0.299925 2.00002 0.23726 2Z" fill="#45596D"/>
</svg>
