<svg width="32" height="33" viewBox="0 0 32 33" fill="none" xmlns="http://www.w3.org/2000/svg">
<path d="M28.1574 0.409494C27.4272 0.124609 26.6478 -0.0141495 25.8637 0.00113896C25.0796 0.0164275 24.3063 0.185466 23.5878 0.498599C22.8693 0.811732 22.2198 1.26282 21.6763 1.82611C21.1329 2.38939 20.7061 3.05383 20.4205 3.78146L14.3893 19.1644L4.41184 15.2799C4.41184 15.2799 -0.631042 20.4188 0.0661623 26.3669L15.6348 32.4365C16.365 32.7213 17.1444 32.8601 17.9285 32.8448C18.7126 32.8295 19.4859 32.6605 20.2044 32.3473C20.9229 32.0342 21.5724 31.5831 22.1159 31.0198C22.6593 30.4566 23.0861 29.7921 23.3717 29.0645L31.5825 8.15828C31.8727 7.42586 32.0142 6.64336 31.9989 5.85608C31.9835 5.06881 31.8116 4.29238 31.4931 3.57174C31.1745 2.8511 30.7157 2.20055 30.1431 1.65775C29.5706 1.11496 28.8956 0.690686 28.1574 0.409494Z" fill="#E88A4B"/>
</svg>
