<svg width="23" height="23" viewBox="0 0 23 23" fill="none" xmlns="http://www.w3.org/2000/svg">
<path fill-rule="evenodd" clip-rule="evenodd" d="M8.16824 2.81445C10.26 1.59785 12.8312 1.61911 14.9033 2.87015C16.9551 4.14667 18.2021 6.42487 18.1905 8.87558C18.1428 11.3102 16.8056 13.5988 15.1341 15.368C14.1694 16.3937 13.0902 17.3007 11.9186 18.0704C11.7979 18.1402 11.6657 18.187 11.5286 18.2084C11.3966 18.2027 11.268 18.1637 11.1545 18.0947C9.36576 16.9382 7.79649 15.4618 6.52219 13.7367C5.45589 12.2968 4.85009 10.557 4.78706 8.75385C4.78568 6.29844 6.07646 4.03105 8.16824 2.81445ZM9.37699 9.76998C9.72886 10.6383 10.5594 11.2047 11.4808 11.2047C12.0845 11.209 12.6647 10.967 13.0923 10.5325C13.5199 10.0981 13.7593 9.50727 13.7572 8.89177C13.7604 7.95227 13.2078 7.10346 12.3575 6.74165C11.5071 6.37984 10.5267 6.57641 9.87403 7.23957C9.22135 7.90274 9.02513 8.90168 9.37699 9.76998Z" fill="#5669FF"/>
<path opacity="0.4" d="M11.4889 21.0834C14.1327 21.0834 16.2759 20.6543 16.2759 20.125C16.2759 19.5958 14.1327 19.1667 11.4889 19.1667C8.84513 19.1667 6.70191 19.5958 6.70191 20.125C6.70191 20.6543 8.84513 21.0834 11.4889 21.0834Z" fill="#5669FF"/>
</svg>
