<svg width="1" height="3" viewBox="0 0 1 3" fill="none" xmlns="http://www.w3.org/2000/svg">
<path d="M0.244339 3C0.179536 3 0.117386 2.97435 0.0715627 2.9287C0.0257396 2.88305 0 2.82113 0 2.75656V0.243436C0 0.178872 0.0257396 0.116951 0.0715627 0.071298C0.117386 0.0256444 0.179536 0 0.244339 0C0.309143 0 0.371293 0.0256444 0.417116 0.071298C0.462939 0.116951 0.488679 0.178872 0.488679 0.243436V2.74225C0.49064 2.7754 0.485778 2.8086 0.47438 2.83981C0.462981 2.87102 0.445289 2.89957 0.422402 2.92372C0.399514 2.94786 0.371921 2.96708 0.341299 2.9802C0.310677 2.99332 0.277673 3.00006 0.244339 3Z" fill="#45596D"/>
</svg>
