<svg width="41" height="65" viewBox="0 0 41 65" fill="none" xmlns="http://www.w3.org/2000/svg">
<path d="M4.87061 11.405C4.44394 12.9977 4.14572 14.6218 3.97879 16.2618C2.95956 25.5791 1.93586 34.8964 0.907685 44.2137C0.552296 47.4672 -0.627865 52.3441 0.431598 55.5174C1.10214 57.6352 3.78433 59.2719 5.67527 60.2874C10.5099 62.8661 16.2632 63.8348 21.6745 64.3425C24.2114 64.6464 26.7636 64.807 29.3187 64.8235C31.2566 64.7835 35.2933 65.4916 36.5204 63.5475C36.7769 63.0889 36.9324 62.581 36.9764 62.0578C37.4525 58.7174 36.3528 56.2589 35.7895 53.0923C35.1801 49.7438 34.9774 46.3345 35.186 42.9377C35.5682 37.2324 37.4189 31.9079 38.6527 26.3697C39.739 21.4995 41.811 16.6159 40.6644 11.5319C39.9619 8.63502 38.459 5.99207 36.3259 3.90262C33.0604 0.615739 29.7546 -0.352962 25.3625 0.108003C20.5279 0.615733 16.1291 0.261665 11.6431 2.61994C7.82772 4.61077 5.89655 7.73732 4.87061 11.405Z" fill="#FAA263"/>
</svg>
