<svg width="4" height="5" viewBox="0 0 4 5" fill="none" xmlns="http://www.w3.org/2000/svg">
<path d="M1.81768 0.83901C1.76669 0.652835 1.69729 0.472162 1.61049 0.299646C1.56592 0.214444 1.50009 0.14211 1.41931 0.0896265C1.33854 0.0371427 1.24555 0.00628103 1.14932 0C1.01851 0.00817523 0.893019 0.054486 0.788424 0.133175C0.404207 0.43525 0.139716 0.86309 0.0418475 1.34087C-0.056021 1.81865 0.0190404 2.31552 0.253727 2.74344C0.504602 3.16617 0.865798 3.51324 1.29889 3.74775C1.73198 3.98225 2.22079 4.09542 2.71329 4.0752C2.91921 4.08505 3.12476 4.04958 3.31536 3.97132C3.50596 3.89306 3.67692 3.77393 3.81608 3.6224C4.29729 2.95651 3.74924 2.3772 3.14772 2.22405C2.82725 2.12279 2.53749 1.94288 2.30507 1.70085C2.07266 1.45882 1.90505 1.16245 1.81768 0.83901Z" fill="#EEB399"/>
</svg>
