<svg width="32" height="35" viewBox="0 0 32 35" fill="none" xmlns="http://www.w3.org/2000/svg">
<path d="M26.9946 3.20137C27.6753 3.25562 28.5193 3.49975 28.7031 4.1711C29.0025 5.25611 27.3418 6.13091 27.5868 7.22949C27.7229 7.8059 28.3559 8.12462 28.9481 8.28059C29.5445 8.3617 30.1096 8.59533 30.5885 8.95872C31.5482 9.90811 30.711 11.617 31.2691 12.8309C31.4937 13.292 31.9498 13.6718 31.9974 14.1871C31.9921 14.5334 31.883 14.8702 31.6841 15.1541C31.4851 15.4381 31.2055 15.6563 30.8811 15.7807C30.0077 16.2369 29.0109 16.4032 28.036 16.2554C27.3554 16.1469 26.6747 15.8892 25.9941 15.7807C24.5894 15.6686 23.1774 15.8726 21.8625 16.3775C21.6977 16.4116 21.5449 16.4888 21.4201 16.6013C21.1887 16.8454 21.2703 17.2387 21.3656 17.5642C21.9256 19.5214 22.2209 21.5443 22.2437 23.5793C22.2604 23.6862 22.2512 23.7955 22.2169 23.8981C22.1825 24.0008 22.124 24.0937 22.0463 24.1693C21.9522 24.2189 21.8463 24.2423 21.74 24.2371C21.4344 24.1836 21.1481 24.0517 20.9094 23.8543C20.6706 23.6568 20.4877 23.4008 20.3787 23.1114C20.1699 22.5298 19.8813 21.9798 19.5211 21.4771C19.2895 21.2631 19.0156 21.0998 18.717 20.9975C18.4183 20.8952 18.1015 20.8562 17.7868 20.883C17.4722 20.9098 17.1666 21.0019 16.8898 21.1532C16.6129 21.3046 16.3708 21.5119 16.1791 21.7619C15.8303 22.2978 15.6711 22.9344 15.7265 23.5707C15.782 24.207 16.0491 24.8066 16.4854 25.2746C16.9385 25.7263 17.4946 26.0621 18.1061 26.2534C18.7177 26.4447 19.3666 26.4858 19.9975 26.3732C20.4467 26.3054 21.0457 26.2579 21.2023 26.6784C21.3588 27.0988 20.9777 27.3904 20.7939 27.7362C20.3447 28.5839 20.8892 29.8452 20.1541 30.4488C19.5347 30.9642 18.2959 30.6861 18.0645 31.4524C18.022 31.7477 18.0453 32.0487 18.1325 32.334C18.1813 32.7063 18.1052 33.0842 17.9159 33.4089C17.7267 33.7336 17.435 33.9869 17.0863 34.1293C16.7376 34.2717 16.3514 34.2952 15.9879 34.1961C15.6244 34.0971 15.3039 33.8811 15.0764 33.5817C14.8246 33.2427 14.5727 32.7476 14.1507 32.8222C14.0158 32.8602 13.8921 32.9299 13.79 33.0257C12.735 33.8598 11.6323 34.7549 10.2982 34.9651C10.0082 35.0258 9.70717 35.007 9.427 34.9109C8.5898 34.5583 8.5898 33.3987 8.74635 32.5035C6.62272 32.6391 4.32893 32.7341 2.53882 31.588C2.18475 31.3894 1.89626 31.0926 1.70842 30.7336C1.55535 30.2781 1.55535 29.7853 1.70842 29.3299C1.98068 28.2516 2.51159 27.2615 2.81789 26.1969C3.00798 25.6747 3.08268 25.1178 3.03686 24.5642C2.99105 24.0106 2.82581 23.4734 2.55244 22.9893C1.7765 21.8704 0.0612586 21.294 0 19.9309C0 19.1307 0.564928 18.4594 0.986932 17.7677C1.60409 16.7505 1.86281 15.5573 1.72205 14.377C1.60634 13.4073 1.21837 12.485 1.0414 11.5221C0.906999 11.0482 0.87634 10.5511 0.951495 10.0644C1.02665 9.57768 1.20586 9.11275 1.477 8.70104C2.66814 7.20914 5.47243 7.54821 6.24156 5.81897C6.40216 5.35016 6.51391 4.86614 6.57507 4.37454C6.79113 3.58067 7.18869 2.84739 7.73659 2.2321C8.2845 1.61681 8.9679 1.1362 9.7333 0.8279C11.2712 0.229155 12.9158 -0.0500736 14.5659 0.00735893C15.6482 0.00735893 17.0299 0.109082 17.8194 0.943187C18.609 1.77729 18.0236 3.41159 19.0582 4.1711C19.9022 4.79498 21.2431 4.33385 22.1212 4.04225C23.6705 3.43181 25.3294 3.14559 26.9946 3.20137Z" fill="#F75454"/>
</svg>
