<svg width="7" height="5" viewBox="0 0 7 5" fill="none" xmlns="http://www.w3.org/2000/svg">
<path d="M6.21675 0.448513C6.00627 0.264372 5.75406 0.133932 5.48178 0.068408C5.20951 0.00288391 4.92532 0.00423697 4.65369 0.072357C4.39053 0.140717 4.14391 0.261222 3.92854 0.426673C3.71317 0.592125 3.53348 0.799127 3.40021 1.03532C3.269 0.797368 3.09108 0.588161 2.87703 0.420142C2.66298 0.252123 2.41719 0.128732 2.15429 0.0573132C1.88324 -0.0138117 1.59898 -0.018815 1.32558 0.0427344C1.05218 0.104284 0.797692 0.230574 0.583672 0.410901C0.304293 0.691934 0.11442 1.04889 0.0378519 1.43701C-0.0387167 1.82513 0.00143336 2.22713 0.153268 2.5926C0.462454 3.33397 1.02022 3.94552 1.73143 4.32292C2.22976 4.64978 2.78577 4.87953 3.37001 5C3.97383 4.88207 4.55011 4.65241 5.069 4.32292C5.77571 3.95755 6.33927 3.36693 6.66982 2.64526C6.82314 2.27589 6.86194 1.86925 6.78119 1.47772C6.70044 1.08619 6.50383 0.727722 6.21675 0.448513Z" fill="#FF5C5C"/>
</svg>
