<svg width="19" height="24" viewBox="0 0 19 24" fill="none" xmlns="http://www.w3.org/2000/svg">
<path d="M18.8364 9.38145C18.836 7.56634 18.3072 5.7903 17.3142 4.26856C16.3211 2.74682 14.9063 1.54469 13.2413 0.80788C11.5763 0.0710678 9.7326 -0.168803 7.93353 0.117326C6.13447 0.403454 4.4573 1.2033 3.10531 2.41995C1.75331 3.63659 0.78451 5.21779 0.316316 6.97194C-0.151878 8.72608 -0.0993694 10.5779 0.46748 12.3029C1.03433 14.0279 2.09118 15.5521 3.50997 16.6907C4.92875 17.8294 6.64856 18.5336 8.46098 18.7181L11.5401 24L12.2095 18.358C14.1319 17.7637 15.8126 16.5713 17.0052 14.9559C18.1978 13.3404 18.8395 11.3868 18.8364 9.38145Z" fill="white"/>
</svg>
