<svg width="25" height="16" viewBox="0 0 25 16" fill="none" xmlns="http://www.w3.org/2000/svg">
<path d="M21.9371 0H3.06289C2.25111 0.00179131 1.47309 0.32387 0.899076 0.89576C0.325062 1.46765 0.00179796 2.24279 0 3.05156V8.81562C0.00179796 9.62439 0.325062 10.3995 0.899076 10.9714C1.47309 11.5433 2.25111 11.8654 3.06289 11.8672H4.92784L4.2472 15.4884L8.66458 11.8672H21.9371C22.7489 11.8654 23.5269 11.5433 24.1009 10.9714C24.6749 10.3995 24.9982 9.62439 25 8.81562V3.05156C24.9982 2.24279 24.6749 1.46765 24.1009 0.89576C23.5269 0.32387 22.7489 0.00179131 21.9371 0Z" fill="white"/>
</svg>
