<svg width="3" height="3" viewBox="0 0 3 3" fill="none" xmlns="http://www.w3.org/2000/svg">
<path d="M2.99999 1.49443C2.99999 1.19886 2.91201 0.909943 2.74719 0.664183C2.58237 0.418423 2.3481 0.226864 2.07401 0.113753C1.79993 0.000641727 1.49831 -0.0289454 1.20734 0.028718C0.916369 0.0863815 0.649111 0.228706 0.439333 0.437708C0.229556 0.64671 0.0867022 0.913009 0.0288246 1.2029C-0.0290529 1.4928 0.000644109 1.79327 0.114175 2.06634C0.227706 2.33942 0.419976 2.57282 0.666649 2.73703C0.913321 2.90124 1.20331 2.98889 1.49998 2.98889C1.69732 2.99018 1.89295 2.95238 2.07552 2.87773C2.25809 2.80308 2.42395 2.69307 2.56349 2.55404C2.70304 2.41501 2.81349 2.24974 2.88842 2.06784C2.96334 1.88595 3.00128 1.69104 2.99999 1.49443Z" fill="#31354F"/>
</svg>
