<svg width="11" height="8" viewBox="0 0 11 8" fill="none" xmlns="http://www.w3.org/2000/svg">
<path opacity="0.7" d="M9.83826 0.837246C9.50654 0.553064 9.11171 0.351591 8.6864 0.24947C8.26108 0.147349 7.81748 0.147493 7.39224 0.249923C6.98068 0.358135 6.59521 0.547789 6.25879 0.80758C5.92237 1.06737 5.64188 1.392 5.43406 1.76208C5.23282 1.38864 4.95714 1.06008 4.62391 0.796579C4.29069 0.533072 3.90693 0.340155 3.49621 0.229672C3.07336 0.119668 2.63009 0.113178 2.20418 0.21074C1.77827 0.308302 1.38236 0.507035 1.05019 0.789986C0.618032 1.22475 0.32346 1.77634 0.203013 2.37635C0.0825669 2.97635 0.141545 3.59838 0.372623 4.1653C0.870229 5.3002 1.73979 6.23318 2.83898 6.81154C3.61843 7.3189 4.4876 7.674 5.40019 7.8579V7.8579C6.31553 7.68377 7.18929 7.33784 7.97495 6.83855C9.08139 6.27405 9.96111 5.34995 10.4684 4.2193C10.7078 3.65611 10.7757 3.03522 10.6636 2.43389C10.5516 1.83255 10.2646 1.27732 9.83826 0.837246V0.837246Z" stroke="#FF5C5C" stroke-width="0.28" stroke-linecap="round" stroke-linejoin="round"/>
</svg>
