<svg width="8" height="9" viewBox="0 0 8 9" fill="none" xmlns="http://www.w3.org/2000/svg">
<path d="M6.53508 7.06782C7.26401 6.47279 7.75867 5.64046 7.93185 4.71758C8.10503 3.7947 7.94561 2.84053 7.48169 2.02331C7.01778 1.20609 6.27916 0.578289 5.39606 0.250605C4.51297 -0.077079 3.5421 -0.0836044 2.65465 0.232172C1.76719 0.547947 1.02014 1.16575 0.54519 1.97665C0.070243 2.78756 -0.102091 3.7395 0.0585694 4.66463C0.21923 5.58975 0.702569 6.42865 1.42337 7.03343C2.14417 7.63821 3.05615 7.97003 3.9985 7.97038C4.3107 7.96895 4.6217 7.93168 4.92533 7.85929L7.05772 8.95627L6.53508 7.06782Z" fill="#FBB040"/>
</svg>
