<svg width="8" height="11" viewBox="0 0 8 11" fill="none" xmlns="http://www.w3.org/2000/svg">
<path d="M7.42308 3.96154C7.42308 5.87692 3.96154 10.5 3.96154 10.5C3.96154 10.5 0.5 5.87692 0.5 3.96154C0.5 3.04348 0.864697 2.16303 1.51386 1.51386C2.16303 0.864697 3.04348 0.5 3.96154 0.5C4.8796 0.5 5.76005 0.864697 6.40922 1.51386C7.05838 2.16303 7.42308 3.04348 7.42308 3.96154V3.96154Z" stroke="#000001" stroke-linecap="round" stroke-linejoin="round"/>
<path d="M3.96152 5.11537C4.59877 5.11537 5.11536 4.59878 5.11536 3.96152C5.11536 3.32427 4.59877 2.80768 3.96152 2.80768C3.32427 2.80768 2.80767 3.32427 2.80767 3.96152C2.80767 4.59878 3.32427 5.11537 3.96152 5.11537Z" stroke="#000001" stroke-linecap="round" stroke-linejoin="round"/>
</svg>
