<svg width="22" height="7" viewBox="0 0 22 7" fill="none" xmlns="http://www.w3.org/2000/svg">
<path d="M15.8041 6.8757C9.91156 6.87351 4.25911 4.54928 0.0802837 0.410207C0.0551539 0.388318 0.0349802 0.36134 0.0211366 0.331079C0.00729311 0.300817 9.82877e-05 0.267964 9.98443e-07 0.234708C-9.62908e-05 0.201452 0.00691743 0.168556 0.0205837 0.138215C0.0342499 0.107874 0.0542379 0.0807742 0.0792392 0.0587395C0.10424 0.0367048 0.13367 0.0202342 0.165564 0.0104216C0.197457 0.000608977 0.231099 -0.00232188 0.264217 0.0018313C0.297335 0.00598447 0.329169 0.0171384 0.357627 0.0345193C0.386085 0.0519003 0.410506 0.0751095 0.429247 0.10263C3.17353 2.81221 6.58662 4.75267 10.3241 5.72819C14.0616 6.70372 17.9912 6.67978 21.7165 5.65882C21.7752 5.64471 21.8371 5.6544 21.8887 5.68573C21.9403 5.71707 21.9773 5.7675 21.9916 5.82597C21.9997 5.85495 22.002 5.88524 21.9983 5.9151C21.9946 5.94496 21.9849 5.97378 21.9699 5.9999C21.955 6.02602 21.9349 6.04893 21.911 6.06728C21.8871 6.08563 21.8597 6.09906 21.8305 6.1068C19.8615 6.61128 17.8372 6.86956 15.8041 6.8757Z" fill="#161A2D"/>
</svg>
