<svg width="29" height="19" viewBox="0 0 29 19" fill="none" xmlns="http://www.w3.org/2000/svg">
<path d="M0.882352 3.80478C1.22011 2.64919 1.87335 1.60974 2.76925 0.802322C3.22207 0.407874 3.77564 0.146013 4.36865 0.0457531C4.96166 -0.0545064 5.57095 0.010742 6.12902 0.234281C6.39696 0.362078 6.63622 0.542476 6.83247 0.76465C7.02871 0.986823 7.1779 1.24619 7.27107 1.52721C7.36425 1.80823 7.39949 2.10511 7.37469 2.40003C7.3499 2.69495 7.26557 2.98185 7.12676 3.24351C8.493 2.33682 10.0613 1.77728 11.6947 1.6138C12.2071 1.51882 12.7336 1.52984 13.2415 1.64618C13.7494 1.76251 14.2279 1.98166 14.6472 2.29003C15.421 2.96626 15.5296 4.43367 14.6472 4.99494C17.1684 3.49535 20.1298 2.90335 23.0364 3.3179C23.9689 3.39273 24.8543 3.75694 25.5682 4.35929C25.8656 4.69733 26.0778 5.10119 26.1872 5.53733C26.2966 5.97348 26.3 6.42933 26.1972 6.86705C26.0943 7.30477 25.8881 7.71174 25.5958 8.05416C25.3034 8.39658 24.9333 8.66458 24.5161 8.83593C25.3522 8.72403 26.2023 8.88128 26.9424 9.28473C27.6824 9.68817 28.2737 10.3167 28.6299 11.0786C28.9861 11.8405 29.0886 12.6958 28.9224 13.5199C28.7563 14.3439 28.3301 15.0934 27.7062 15.6591C26.593 16.6599 25.0387 16.9507 23.5659 17.2009L20.1722 17.7689C18.5543 18.0819 16.9207 18.3076 15.2784 18.4452C12.5851 18.6088 9.88378 18.3022 7.29645 17.539C5.42621 17.0555 3.69636 16.1405 2.24662 14.8679C-0.658388 12.0413 -0.319019 7.3347 0.882352 3.80478Z" fill="#171C27"/>
</svg>
