<svg width="3" height="3" viewBox="0 0 3 3" fill="none" xmlns="http://www.w3.org/2000/svg">
<path d="M2.99999 1.49445C2.99999 1.79002 2.91201 2.07896 2.74719 2.32472C2.58237 2.57048 2.3481 2.76202 2.07401 2.87513C1.79993 2.98825 1.49834 3.01784 1.20737 2.96018C0.916398 2.90251 0.649111 2.76018 0.439333 2.55118C0.229556 2.34218 0.0867022 2.07589 0.0288246 1.786C-0.0290529 1.49611 0.000644109 1.19562 0.114175 0.922545C0.227706 0.649471 0.419976 0.416072 0.666649 0.25186C0.913322 0.0876483 1.20331 0 1.49998 0C1.8978 0 2.27936 0.157452 2.56066 0.437715C2.84196 0.717978 2.99999 1.0981 2.99999 1.49445Z" fill="#31354F"/>
</svg>
