<svg width="9" height="7" viewBox="0 0 9 7" fill="none" xmlns="http://www.w3.org/2000/svg">
<path d="M8.26004 0.587327C7.97727 0.345435 7.64077 0.174074 7.27837 0.0874183C6.91596 0.000762311 6.53805 0.00129929 6.17589 0.0889814C5.82617 0.182674 5.49865 0.344751 5.2124 0.565771C4.92616 0.786791 4.6869 1.06234 4.50858 1.37637C4.33654 1.05995 4.10197 0.781531 3.81899 0.557892C3.53602 0.334254 3.21051 0.170031 2.86211 0.0751355C2.50228 -0.0185641 2.12512 -0.0247184 1.76241 0.0571919C1.3997 0.139102 1.06206 0.306672 0.777958 0.545789C0.406611 0.917897 0.153796 1.39096 0.0512189 1.90564C-0.0513587 2.42033 0.000868041 2.95373 0.201346 3.43896C0.618677 4.40509 1.35372 5.20088 2.28549 5.69535C2.95008 6.12793 3.68989 6.43309 4.46689 6.59514C5.25905 6.44805 6.01586 6.15209 6.69693 5.72304C7.62386 5.23208 8.35798 4.4446 8.78107 3.48741C8.98915 3.00635 9.05069 2.47497 8.95805 1.95934C8.86542 1.44372 8.62268 0.966604 8.26004 0.587327Z" fill="#FF5C5C"/>
</svg>
