<svg width="22" height="22" viewBox="0 0 22 22" fill="none" xmlns="http://www.w3.org/2000/svg">
<path d="M8.92323 17.8751C6.77547 17.8751 5.02734 16.127 5.02734 13.9792V4.5835H3.42323C2.03262 4.5835 0.902344 5.71361 0.902344 7.10422V19.4792C0.902344 20.8698 2.03262 22.0001 3.42323 22.0001H14.8815C16.2721 22.0001 17.4023 20.8698 17.4023 19.4792V17.8751H8.92323Z" fill="#7D7E93"/>
<path d="M21.069 2.52089C21.069 1.12843 19.9405 0 18.5482 0H8.92323C7.53078 0 6.40234 1.12843 6.40234 2.52089V13.9791C6.40234 15.3716 7.53078 16.5 8.92323 16.5H18.5482C19.9405 16.5 21.069 15.3716 21.069 13.9791V2.52089Z" fill="#9B9CA8"/>
</svg>
