<svg width="8" height="6" viewBox="0 0 8 6" fill="none" xmlns="http://www.w3.org/2000/svg">
<path d="M7.31899 0.523569C7.06689 0.310284 6.76798 0.159042 6.44641 0.08205C6.12484 0.00505848 5.7896 0.0044732 5.46776 0.0803456C4.84043 0.251127 4.30646 0.662344 3.98249 1.22414C3.83303 0.945418 3.62904 0.699342 3.38257 0.500439C3.1361 0.301535 2.85214 0.153832 2.54744 0.0660478C2.22639 -0.0168324 1.89007 -0.0217837 1.5667 0.0516055C1.24334 0.124995 0.942378 0.274584 0.689041 0.487823C0.359644 0.81942 0.13563 1.24038 0.0450221 1.6981C-0.0455858 2.15583 0.00121521 2.63 0.17958 3.06137C0.556181 3.91968 1.21387 4.62534 2.04516 5.06302C2.63407 5.44849 3.29173 5.71786 3.98249 5.85653C4.67353 5.72297 5.33316 5.46106 5.92699 5.08446C6.76412 4.65792 7.42991 3.95928 7.81409 3.10426C7.9958 2.67333 8.04574 2.19854 7.95767 1.73943C7.86959 1.28033 7.64741 0.857357 7.31899 0.523569Z" fill="#FF5C5C"/>
</svg>
