<svg width="31" height="44" viewBox="0 0 31 44" fill="none" xmlns="http://www.w3.org/2000/svg">
<path d="M30.6652 4.01695C30.168 2.53875 29.1026 1.31735 27.7028 0.620648C26.303 -0.0760563 24.6829 -0.191191 23.198 0.30051C22.6498 0.480337 9.64749 4.88279 2.06668 14.1539C1.36372 15.0124 0.918753 16.0514 0.783152 17.151C0.709617 17.7305 -0.941581 31.4973 0.783152 43.4791C2.7405 44.0123 4.78713 44.1379 6.79534 43.8479C8.80355 43.558 10.7302 42.8589 12.4552 41.7941C11.2786 33.6885 11.9404 24.1976 12.2947 20.3413C17.8634 14.5469 26.828 11.4765 26.9216 11.4498C28.4072 10.9586 29.6362 9.89963 30.3382 8.50574C31.0403 7.11185 31.1579 5.49721 30.6652 4.01695Z" fill="#7298E2"/>
</svg>
