<svg width="38" height="5" viewBox="0 0 38 5" fill="none" xmlns="http://www.w3.org/2000/svg">
<path d="M20.7073 4.76387C13.6243 4.8033 6.6149 3.3315 0.150286 0.447424C0.119635 0.435933 0.0917586 0.418116 0.0685198 0.395127C0.045281 0.372138 0.0271966 0.344491 0.0154458 0.314037C0.00369498 0.283582 -0.00144828 0.251003 0.000350191 0.218425C0.00214866 0.185847 0.0108451 0.154021 0.0258774 0.125033C0.0409096 0.0960464 0.0619423 0.0705608 0.0875715 0.0502496C0.113201 0.0299384 0.142854 0.0152565 0.174585 0.00718405C0.206315 -0.000888451 0.239389 -0.00217368 0.271654 0.00340855C0.30392 0.00899079 0.33465 0.0213084 0.361791 0.0395662C0.539183 0.127934 17.91 8.77442 37.6824 1.18155C37.7395 1.15922 37.803 1.16028 37.8593 1.18448C37.9155 1.20867 37.9599 1.25405 37.9826 1.31071C37.9946 1.33916 38.0005 1.36977 38 1.40059C37.9995 1.43142 37.9926 1.46181 37.9798 1.48988C37.967 1.51794 37.9485 1.54307 37.9256 1.56371C37.9026 1.58434 37.8756 1.60003 37.8462 1.6098C32.3782 3.70819 26.5669 4.77766 20.7073 4.76387Z" fill="#45596D"/>
</svg>
