<svg width="51" height="42" viewBox="0 0 51 42" fill="none" xmlns="http://www.w3.org/2000/svg">
<path d="M39.1073 0.37929C38.0779 10.3454 32.2602 18.2603 21.8169 23.908C16.5558 26.7057 10.8962 28.6853 5.03439 29.7784C3.55478 30.013 2.2177 30.7931 1.28828 31.9638C0.358861 33.1346 -0.0950317 34.6106 0.0166195 36.0992C0.128271 37.5877 0.797319 38.9801 1.89107 40.0003C2.98482 41.0204 4.42341 41.5938 5.9216 41.6068C6.22063 41.6067 6.51932 41.5864 6.81559 41.5461C13.9238 40.2789 20.7916 37.9207 27.174 34.5556C41.3152 27.0254 49.5236 15.6287 51 1.58711C43.0354 -1.03094 39.1073 0.37929 39.1073 0.37929Z" fill="#7298E2"/>
</svg>
