<svg width="1" height="3" viewBox="0 0 1 3" fill="none" xmlns="http://www.w3.org/2000/svg">
<path d="M0.25101 2.99999C0.185407 2.99999 0.122491 2.97403 0.0761033 2.92782C0.0297155 2.8816 0.00363635 2.81892 0.00363635 2.75356V0.296405C-0.00260688 0.260001 -0.000793574 0.222679 0.0089426 0.187045C0.0186788 0.15141 0.0361049 0.118322 0.0600069 0.0900938C0.083909 0.061866 0.113711 0.0391872 0.147327 0.0236239C0.180943 0.00806057 0.217561 0 0.254629 0C0.291697 0 0.328337 0.00806057 0.361953 0.0236239C0.395568 0.0391872 0.425348 0.061866 0.44925 0.0900938C0.473152 0.118322 0.490601 0.15141 0.500337 0.187045C0.510073 0.222679 0.511864 0.260001 0.505621 0.296405V2.72456C0.508652 2.75965 0.504331 2.79499 0.492899 2.82832C0.481467 2.86165 0.463191 2.89226 0.439237 2.91817C0.415284 2.94408 0.386167 2.96474 0.35376 2.97882C0.321353 2.99291 0.286367 3.00012 0.25101 2.99999Z" fill="#45596D"/>
</svg>
