<svg width="23" height="27" viewBox="0 0 23 27" fill="none" xmlns="http://www.w3.org/2000/svg">
<path d="M0.0608842 18.951C4.92213 22.2199 10.2671 24.7104 15.9016 26.3321C15.9559 26.3521 16.0156 26.3521 16.07 26.3321C16.1183 26.3004 16.154 26.253 16.171 26.1979L22.9935 0.270136C23.0005 0.242366 23.0019 0.213481 22.9975 0.185185C22.9931 0.156889 22.9831 0.129757 22.968 0.105374C22.953 0.0809909 22.9332 0.05985 22.9098 0.0432042C22.8864 0.0265583 22.8599 0.0147412 22.8319 0.00844353C22.8045 0.000411178 22.7757 -0.00192476 22.7473 0.00158355C22.7189 0.00509186 22.6916 0.0143699 22.667 0.0288392C22.6423 0.0433084 22.621 0.062656 22.6042 0.0856951C22.5873 0.108734 22.5755 0.134971 22.5692 0.162773L15.8342 25.8758C10.3268 24.2604 5.10206 21.8093 0.343758 18.6088C0.294443 18.5784 0.235135 18.5683 0.178507 18.5809C0.121879 18.5934 0.0724169 18.6275 0.04068 18.6759C0.0110794 18.7168 -0.00311958 18.7668 0.000574865 18.8171C0.00426932 18.8674 0.0256205 18.9148 0.0608842 18.951Z" fill="#B56B39"/>
</svg>
