<svg width="10" height="11" viewBox="0 0 10 11" fill="none" xmlns="http://www.w3.org/2000/svg">
<path d="M0.703835 5.43636C0.942283 5.49019 1.19208 5.46007 1.41076 5.35114C1.62944 5.2422 1.8035 5.06117 1.90335 4.83882C1.6176 5.36107 1.4174 5.92544 1.31033 6.5106C1.26174 6.80376 1.28678 7.10434 1.3832 7.38551C1.47963 7.66668 1.64444 7.91969 1.86292 8.12193C2.15824 8.31956 2.50067 8.43604 2.85564 8.45962C3.21061 8.48319 3.56554 8.41303 3.88458 8.25621C4.55846 7.99437 5.11779 7.55125 5.77146 7.26255C5.61167 7.43478 5.48894 7.63776 5.41084 7.85902C5.33275 8.08027 5.30093 8.3151 5.31734 8.54906C5.33376 8.78303 5.39806 9.01117 5.50629 9.21944C5.61452 9.42772 5.76438 9.61173 5.94666 9.76013C6.33548 10.0354 6.80063 10.1832 7.27759 10.1832C7.75455 10.1832 8.21969 10.0354 8.60851 9.76013C8.98602 9.47095 9.30029 9.10801 9.53205 8.69355C9.7638 8.27909 9.90816 7.82185 9.95628 7.34984C10.077 6.62991 9.94615 5.8905 9.58564 5.25509C9.40039 4.94308 9.13112 4.68902 8.80834 4.5217C8.48556 4.35438 8.12219 4.2805 7.75942 4.30843C7.91767 3.87186 7.94998 3.39984 7.85269 2.9459C7.7554 2.49197 7.53241 2.07426 7.20899 1.74016C6.88558 1.40605 6.47467 1.16892 6.02287 1.05562C5.57107 0.942328 5.09644 0.957415 4.6528 1.09917C4.43167 0.775143 4.1375 0.50716 3.79381 0.316677C3.45012 0.126194 3.06646 0.0184891 2.67351 0.0021769C2.28057 -0.0141353 1.88924 0.0614064 1.53084 0.222744C1.17244 0.384082 0.856911 0.626746 0.609492 0.931325C0.0569056 1.79742 -0.468726 4.95967 0.703835 5.43636Z" fill="#171C27"/>
</svg>
