<svg width="5" height="7" viewBox="0 0 5 7" fill="none" xmlns="http://www.w3.org/2000/svg">
<path d="M0.974296 0.0942751C1.17925 0.00213445 1.40815 -0.0232865 1.62843 0.0216348C1.84872 0.0665561 2.04919 0.179526 2.20132 0.344485C2.27121 0.430695 2.32003 0.531911 2.34391 0.640141C2.3678 0.748371 2.3661 0.860652 2.33896 0.968119C2.31182 1.07558 2.25998 1.1753 2.18753 1.25938C2.11507 1.34346 2.02399 1.4096 1.92148 1.45259C2.54575 1.41685 3.31354 1.45259 3.62209 2.00307C3.71572 2.27099 3.7385 2.55842 3.68823 2.83765C3.63795 3.11689 3.51632 3.37851 3.33507 3.59731C3.5536 3.47199 3.80955 3.42765 4.05771 3.47213C4.30587 3.51661 4.53026 3.64704 4.69126 3.84037C4.84906 4.0395 4.95084 4.27689 4.98615 4.52816C5.02146 4.77943 4.98902 5.03553 4.89217 5.27018C4.70636 5.73967 4.38086 6.14131 3.95935 6.42118C3.85139 6.51622 3.71545 6.57391 3.57186 6.58561C3.4093 6.56842 3.25622 6.50092 3.13415 6.39259C2.26808 5.77176 1.51769 5.00479 0.91689 4.12634C0.192155 3.01109 -0.747847 0.794882 0.974296 0.0942751Z" fill="#A05E47"/>
</svg>
