<svg width="2" height="2" viewBox="0 0 2 2" fill="none" xmlns="http://www.w3.org/2000/svg">
<path d="M0.937821 0.00321548C1.21468 -0.0180505 1.48925 0.06675 1.7055 0.240312C1.78642 0.308253 1.85634 0.388225 1.91278 0.477409C1.94983 0.552293 1.9757 0.632169 1.98956 0.714506C2.01453 0.886663 1.99444 1.06233 1.93122 1.22447C1.86801 1.38661 1.76381 1.52974 1.62875 1.63996C1.4916 1.74724 1.33531 1.82769 1.16814 1.87706C1.03213 1.93255 0.883771 1.95103 0.738242 1.9306C0.656036 1.90791 0.578188 1.87171 0.507925 1.82351C0.268527 1.6648 0.0984452 1.42155 0.0319707 1.14281C-0.00542444 1.00633 -0.0100849 0.862993 0.0183593 0.72438C0.0468035 0.585766 0.107567 0.455757 0.195729 0.344845C0.283892 0.233932 0.396984 0.145222 0.525894 0.0858773C0.654804 0.026533 0.795904 -0.00177816 0.937821 0.00321548Z" fill="#EEB399"/>
</svg>
