<svg width="110" height="123" viewBox="0 0 110 123" fill="none" xmlns="http://www.w3.org/2000/svg">
<path d="M58.5463 76.9275C58.5463 76.9275 56.5376 67.5884 77.8296 67.7952C99.1215 68.002 99.4563 71.871 99.9986 76.9275H58.5463Z" fill="#406EB2"/>
<path d="M50.7862 122.543C50.7862 122.543 49.7216 103.924 52.5605 88.2814C55.3995 72.6383 69.969 72.2715 69.969 72.2715C69.969 72.2715 86.0853 71.004 97.287 73.2988C108.053 75.5001 111.629 93.8582 109.339 122.536L50.7862 122.543Z" fill="#7298E2"/>
<path d="M63.8694 88.4614C54.2097 88.2433 44.6746 86.2415 35.7479 82.5577C16.0562 74.326 3.72967 58.763 0.107362 37.5498C-0.230036 35.5718 0.235052 33.5413 1.40031 31.905C2.56557 30.2686 4.33554 29.1605 6.32086 28.8244C8.30618 28.4882 10.3442 28.9516 11.9866 30.1125C13.629 31.2735 14.7413 33.0369 15.0787 35.0149C17.8239 51.0915 26.7558 62.3652 41.6266 68.6091C48.6953 71.5038 56.2303 73.1038 63.8694 73.332H63.9765C65.9902 73.317 67.9275 74.0995 69.3621 75.5076C70.7967 76.9156 71.6111 78.8337 71.6262 80.84C71.6413 82.8463 70.8558 84.7764 69.4426 86.2057C68.0293 87.635 66.104 88.4464 64.0903 88.4614H63.8694Z" fill="#7298E2"/>
<path d="M64.7599 71.5376C64.7599 71.5376 67.9671 81.864 80.374 81.6839C92.7809 81.5038 94.5351 71.5376 94.5351 71.5376C94.5351 71.5376 83.8891 66.4478 64.7599 71.5376Z" fill="#406EB2"/>
<path d="M74.0734 61.5314V73.4655C74.0734 73.4655 74.1604 79.2291 80.5949 79.2291C80.5949 79.2291 85.6902 79.2291 85.6902 74.1526V61.5314H74.0734Z" fill="#E2A58D"/>
<path d="M57.3009 25.9625C56.6877 26.6762 56.2478 27.5211 56.0156 28.4316C55.7833 29.3421 55.7649 30.2937 55.9618 31.2125C56.3802 33.0504 57.2734 34.7475 58.553 36.1355C59.1623 36.8026 59.8921 37.5698 59.8921 38.497C59.8516 39.0436 59.6842 39.5734 59.4033 40.0446L58.0642 42.9598C57.5353 44.1005 57.0063 45.448 57.5888 46.562C57.8445 46.9341 58.0684 47.3268 58.2584 47.7361C58.6333 48.9502 57.254 50.351 57.937 51.425C58.1358 51.7061 58.4 51.935 58.707 52.0921C60.6856 53.245 62.8797 53.9827 65.1548 54.2601C67.7841 54.4736 70.429 54.3998 73.0422 54.04C80.6082 53.3195 88.1966 52.9638 95.8072 52.9727C96.8948 53.0464 97.9865 52.9081 99.0211 52.5657C99.5351 52.3846 99.9846 52.0575 100.314 51.6249C100.644 51.1922 100.839 50.6728 100.876 50.1309C100.876 48.7967 99.5366 47.7761 99.3157 46.4419C99.0211 44.5541 101.036 42.7863 100.514 40.9519C100.34 40.3515 99.9116 39.8512 99.7308 39.2575C99.3023 37.8366 100.347 36.4424 101.07 35.1549C101.677 34.1597 102.065 33.0474 102.208 31.8917C102.351 30.7359 102.246 29.5631 101.9 28.4508C100.869 25.5756 97.9833 23.8145 95.2046 22.5538C88.7611 19.6693 81.7929 18.1301 74.7295 18.031C72.4545 17.8877 70.1744 18.2171 68.0339 18.9982C66.505 19.7645 65.0367 20.6454 63.6416 21.6332C61.7937 22.7806 59.6779 23.7545 58.5999 25.6357" fill="#F75454"/>
<path d="M59.9256 48.7501C59.9256 59.3164 68.5231 67.882 79.1285 67.882C89.734 67.882 98.3315 59.3164 98.3315 48.7501V32.2999C98.3315 21.7337 89.734 13.168 79.1285 13.168C68.5231 13.168 59.9256 21.7337 59.9256 32.2999L59.9256 48.7501Z" fill="#EEB399"/>
<path d="M79.6173 41.4189L80.0123 44.8143L79.5236 44.5342C79.9017 44.3532 80.3159 44.2592 80.7355 44.2592C81.155 44.2592 81.5692 44.3532 81.9474 44.5342C82.3351 44.7151 82.6594 45.0079 82.8781 45.3747C83.0841 45.7384 83.186 46.1514 83.1727 46.5688C83.1596 46.9932 83.0013 47.4004 82.724 47.7228C82.4459 48.0228 82.0848 48.2341 81.6862 48.3299C81.3084 48.428 80.9182 48.4707 80.5279 48.4566C80.1233 48.4634 79.7279 48.3368 79.403 48.0964C79.3902 48.0851 79.38 48.0713 79.3729 48.0557C79.3659 48.0402 79.3622 48.0234 79.3622 48.0063C79.3622 47.9893 79.3659 47.9725 79.3729 47.9569C79.38 47.9414 79.3902 47.9276 79.403 47.9163C79.4266 47.8942 79.4578 47.882 79.4901 47.882C79.5224 47.882 79.5536 47.8942 79.5771 47.9163C79.8872 48.0697 80.2258 48.1572 80.5716 48.1733C80.9174 48.1894 81.2628 48.1337 81.5858 48.0097C81.9072 47.9162 82.1952 47.7334 82.4161 47.4827C82.6128 47.2264 82.7167 46.9114 82.7107 46.5888C82.7169 46.2665 82.6258 45.9498 82.4491 45.6797C82.2723 45.4097 82.0182 45.1988 81.7197 45.0745C81.4177 44.9525 81.0923 44.8989 80.767 44.9173C80.4416 44.9358 80.1244 45.0259 79.8383 45.1812C79.8009 45.201 79.76 45.2133 79.7179 45.2173C79.6758 45.2213 79.6333 45.217 79.5929 45.2046C79.5524 45.1922 79.5148 45.172 79.4823 45.1451C79.4497 45.1182 79.4228 45.0851 79.403 45.0478C79.3764 45.0011 79.3625 44.9482 79.3629 44.8944L79.403 41.4789C79.403 41.4471 79.4157 41.4166 79.4383 41.394C79.4609 41.3715 79.4916 41.3589 79.5236 41.3589C79.5427 41.3611 79.5612 41.3677 79.5774 41.3781C79.5936 41.3885 79.6073 41.4025 79.6173 41.4189Z" fill="#FC7575"/>
<path d="M72.0246 42.9465C72.0246 43.8071 71.5291 44.5008 70.9198 44.5008C70.3105 44.5008 69.815 43.8338 69.815 42.9465C69.815 42.0593 70.3038 41.3922 70.9198 41.3922C71.5358 41.3922 72.0246 42.0927 72.0246 42.9465Z" fill="#351305"/>
<path d="M89.9017 42.9465C89.9017 43.8071 89.4062 44.5008 88.7969 44.5008C88.1876 44.5008 87.6922 43.8338 87.6922 42.9465C87.6922 42.0593 88.1943 41.3789 88.7969 41.3789C89.3995 41.3789 89.9017 42.0927 89.9017 42.9465Z" fill="#351305"/>
<path d="M73.5377 50.6379C74.3483 51.5525 75.3713 52.2555 76.5173 52.6858C77.0722 52.8613 77.6644 52.8844 78.2313 52.7525C78.8381 52.6129 79.422 52.3883 79.9655 52.0854C79.9778 52.0799 79.991 52.077 80.0045 52.0767C80.0179 52.0765 80.0313 52.0789 80.0438 52.0839C80.0563 52.0888 80.0676 52.0963 80.0772 52.1057C80.0867 52.1151 80.0943 52.1264 80.0994 52.1388C80.1119 52.1551 80.1186 52.175 80.1186 52.1955C80.1186 52.216 80.1119 52.2359 80.0994 52.2522C79.644 52.7698 79.0664 53.1664 78.4188 53.4062C77.7367 53.6616 76.9903 53.692 76.2896 53.493C75.6084 53.2981 74.9839 52.9435 74.4684 52.459C73.9599 51.9999 73.5519 51.4413 73.2699 50.818C73.2516 50.7781 73.2497 50.7327 73.2648 50.6915C73.2798 50.6503 73.3105 50.6166 73.3503 50.5978C73.3814 50.5846 73.4157 50.5808 73.449 50.5867C73.4823 50.5926 73.5131 50.6081 73.5377 50.6312V50.6379Z" fill="#351305"/>
<path d="M92.2586 37.2629C92.5733 37.3163 93.0085 37.2629 93.062 36.9761C93.0615 36.8839 93.0394 36.7931 92.9976 36.7109C92.9558 36.6287 92.8953 36.5574 92.821 36.5025C91.6604 35.564 90.2769 34.9391 88.8036 34.688C88.3217 34.5471 87.8179 34.4951 87.3172 34.5346C86.815 34.6013 86.1522 34.9282 86.3062 35.5285C86.4602 36.1289 87.4913 36.1956 87.96 36.329C89.3594 36.7093 90.8056 37.0094 92.2586 37.2629Z" fill="#F75454"/>
<path d="M67.9871 37.2629C67.6724 37.3162 67.2305 37.2629 67.1769 36.976C67.1771 36.8831 67.1998 36.7916 67.2429 36.7091C67.286 36.6267 67.3483 36.5558 67.4247 36.5024C68.5841 35.5621 69.9681 34.937 71.442 34.6879C71.9241 34.5478 72.4277 34.4958 72.9284 34.5345C73.4306 34.6012 74.0935 34.9281 73.9395 35.5285C73.7855 36.1288 72.7543 36.1955 72.2857 36.3289C70.8796 36.7092 69.4467 37.0094 67.9871 37.2629Z" fill="#F75454"/>
<path d="M77.2739 0.0198073C74.6693 -0.146963 71.6563 0.726913 70.6252 3.11506C70.1565 4.20908 70.1632 5.48988 69.5472 6.51051C68.6366 8.03145 66.7016 8.51175 65.0143 9.06543C62.0348 10.0527 58.9883 12.2207 58.7807 15.3493C58.816 16.07 58.7733 16.7924 58.6535 17.504C58.2719 18.8382 56.8725 19.592 55.8548 20.5592C54.8218 21.542 54.1435 22.8371 53.9255 24.2435C53.7074 25.6498 53.9617 27.0885 54.6488 28.336C55.336 29.5835 56.4175 30.5699 57.7253 31.142C59.0331 31.714 60.4939 31.8397 61.8808 31.4994C64.1908 30.939 65.9852 29.1846 67.6591 27.4969C68.7079 28.3992 70.0013 28.972 71.3764 29.1429C72.7515 29.3139 74.1466 29.0754 75.3858 28.4575C77.1869 27.5236 79.0482 25.7291 80.8962 26.5696C81.78 26.9699 82.3358 27.9038 83.2263 28.2974C84.4516 28.831 85.8309 28.1973 87.0896 27.7437C88.3484 27.2901 90.0156 27.1367 90.7655 28.2373C90.9842 28.7178 91.2301 29.1855 91.502 29.6382C92.1716 30.372 93.35 30.1919 94.2338 29.7583C95.1176 29.3247 95.968 28.691 96.9522 28.7043C97.5618 28.7735 98.1603 28.9192 98.7332 29.1379C101.833 29.9918 105.342 27.5569 105.817 24.3883C106.293 21.2196 103.808 17.9643 100.682 17.3372C99.8539 17.2798 99.047 17.0527 98.3114 16.6702C97.2468 15.923 97.1196 14.3887 97.3674 13.1146C97.6151 11.8405 98.1373 10.5797 97.9833 9.29224C97.8458 8.49503 97.5008 7.74772 96.9826 7.12497C96.4645 6.50222 95.7914 6.02582 95.0306 5.74337C93.4963 5.20021 91.8308 5.14427 90.2633 5.58326C87.1097 6.35041 86.1188 6.06357 84.2373 3.72211C83.4241 2.62993 82.3776 1.73128 81.1734 1.09103C79.9692 0.450778 78.6373 0.0848989 77.2739 0.0198073Z" fill="#F75454"/>
<path d="M102.597 45.4947C102.598 46.3278 102.351 47.1425 101.887 47.8358C101.424 48.529 100.764 49.0696 99.9916 49.389C99.2193 49.7084 98.3693 49.7923 97.5491 49.6301C96.7289 49.4679 95.9755 49.0669 95.3842 48.4778C94.7929 47.8887 94.3904 47.1381 94.2276 46.3209C94.0648 45.5038 94.1491 44.6569 94.4697 43.8875C94.7903 43.1181 95.3328 42.4607 96.0286 41.9987C96.7244 41.5367 97.5422 41.2908 98.3784 41.2921C99.4966 41.2939 100.568 41.7372 101.359 42.525C102.15 43.3127 102.595 44.3807 102.597 45.4947Z" fill="#EEB399"/>
<path d="M64.0903 45.4947C64.0916 46.3278 63.8448 47.1425 63.3811 47.8358C62.9173 48.529 62.2576 49.0696 61.4853 49.389C60.713 49.7084 59.863 49.7923 59.0428 49.6301C58.2226 49.4679 57.4692 49.0669 56.8779 48.4778C56.2867 47.8887 55.8841 47.1381 55.7213 46.3209C55.5585 45.5038 55.6428 44.6569 55.9634 43.8875C56.284 43.1181 56.8265 42.4607 57.5223 41.9987C58.2181 41.5367 59.0359 41.2908 59.8721 41.2921C60.9903 41.2939 62.0622 41.7372 62.8529 42.525C63.6435 43.3127 64.0885 44.3807 64.0903 45.4947Z" fill="#EEB399"/>
<path d="M70.4109 72.9118C70.4109 72.9118 70.4109 81.6906 79.8785 81.6906C89.346 81.6906 89.2523 73.6856 89.2523 73.6856" stroke="#406EB2" stroke-width="0.57" stroke-linecap="round" stroke-linejoin="round"/>
<path d="M98.3783 122.543C98.3783 122.543 102.536 102.977 98.3783 83.0913" stroke="#406EB2" stroke-width="0.57" stroke-linecap="round" stroke-linejoin="round"/>
</svg>
