<svg width="12" height="12" viewBox="0 0 12 12" fill="none" xmlns="http://www.w3.org/2000/svg">
<path d="M1.07899 1.66617C0.907744 1.67965 0.743286 1.73877 0.602846 1.83732C0.462405 1.93588 0.35115 2.07025 0.280731 2.22635C0.145301 2.54113 0.0744995 2.87973 0.0724932 3.2222C-0.0689824 4.27369 -0.00296108 5.34258 0.266851 6.36885C0.849926 8.16001 2.50197 9.36335 4.11237 10.3385C5.3612 11.2103 6.801 11.7722 8.3119 11.9775C8.52767 12.0186 8.75046 12.0032 8.9585 11.9329C9.16654 11.8626 9.35273 11.7398 9.49888 11.5764C9.81124 11.0853 9.41558 10.4629 9.04074 10.0203L8.12448 8.92765C8.41291 9.41425 8.82572 9.81593 9.32081 10.0917C9.8159 10.3675 10.3756 10.5075 10.9427 10.4975C11.1335 10.5028 11.3217 10.4523 11.4841 10.3523C11.5963 10.2442 11.6845 10.1139 11.7431 9.96978C11.8017 9.82565 11.8293 9.6709 11.8242 9.51549C11.9903 8.23016 11.9645 6.92744 11.7479 5.64962C11.5545 4.57335 11.1169 3.55532 10.4685 2.6732C9.8201 1.79108 8.978 1.06818 8.00648 0.559666C7.02005 0.0761993 5.91029 -0.099917 4.82191 0.0542853C3.73354 0.208488 2.71706 0.685852 1.90501 1.42413" fill="#171C27"/>
</svg>
