<svg width="257" height="267" viewBox="0 0 257 267" fill="none" xmlns="http://www.w3.org/2000/svg">
<g style="mix-blend-mode:multiply" opacity="0.2">
<path d="M179.366 13.171C168.935 7.28193 155.134 -0.0727369 142.951 0.00054328C89.1772 0.326973 34.0731 30.2786 10.2288 79.2764C3.58236 92.9265 -1.03138 107.996 0.198954 123.125C1.19525 135.649 6.11657 147.527 11.5661 158.852C26.3568 189.497 46.109 218.436 73.2631 239.014C100.417 259.592 135.682 271.051 169.229 264.855C181.507 262.681 193.194 257.972 203.538 251.032C215.801 242.645 225.503 230.973 233.4 218.389C246.773 197.171 255.359 172.822 256.803 147.827C259.865 93.4262 226.947 40.0449 179.366 13.171Z" fill="#FFC9A4"/>
</g>
<g style="mix-blend-mode:multiply" opacity="0.2">
<path d="M52.508 226.783C49.932 225.463 47.2476 224.364 44.4841 223.498C42.8207 222.917 41.0989 222.517 39.3489 222.306C36.7607 222.068 34.155 222.511 31.793 223.592C28.4497 225.137 25.5411 228.495 26.0292 232.139C26.5641 236.176 30.8235 238.621 34.802 239.56C40.8199 240.972 47.0718 240.38 53.2369 240.579C57.1017 240.699 66.3827 244.337 65.6271 238.454C65.032 233.698 56.2592 228.741 52.508 226.783Z" fill="#FFC9A4"/>
</g>
<g style="mix-blend-mode:multiply" opacity="0.2">
<path d="M26.0091 205.458C24.4286 207.165 23.5689 209.412 23.6086 211.734C23.6447 212.884 23.9619 214.009 24.5329 215.009C25.1038 216.01 25.9112 216.857 26.885 217.476C28.4063 218.279 30.1052 218.689 31.8264 218.669C33.5984 218.735 35.5441 218.575 36.828 217.336C37.717 216.37 38.2601 215.138 38.3726 213.832C38.8042 211.33 38.2819 208.756 36.9082 206.617C34.5478 203.26 28.9445 202.201 26.0091 205.458Z" fill="#FFC9A4"/>
</g>
<g style="mix-blend-mode:multiply" opacity="0.2">
<path d="M231.18 47.0664C230.886 44.022 231.039 40.7244 232.838 38.2395C234.637 35.7546 238.562 34.6421 240.862 36.6673C243.162 38.6925 242.728 42.1167 242.199 45.0212C241.544 48.4943 240.875 51.9651 240.193 55.4337C239.852 57.2257 239.999 62.2221 237.479 62.1755C234.958 62.1288 233.915 57.9252 233.266 56.1798C232.25 53.3685 231.18 50.0376 231.18 47.0664Z" fill="#FFC9A4"/>
</g>
<g style="mix-blend-mode:multiply" opacity="0.2">
<path d="M223.089 44.042C223.691 44.2203 224.321 44.2902 224.948 44.2485C225.552 44.1765 226.134 43.9814 226.658 43.6754C227.183 43.3694 227.639 42.959 227.997 42.4698C228.704 41.4915 229.132 40.3403 229.234 39.1389C229.336 38.3815 229.272 37.611 229.047 36.8805C227.857 33.3831 221.244 32.024 218.984 35.1684C216.443 38.6726 219.445 43.0494 223.089 44.042Z" fill="#FFC9A4"/>
</g>
</svg>
