<svg width="9" height="7" viewBox="0 0 9 7" fill="none" xmlns="http://www.w3.org/2000/svg">
<path d="M0.732572 0.590953C1.014 0.347193 1.35027 0.174644 1.71288 0.0879384C2.0755 0.00123263 2.45377 0.0029264 2.81558 0.0928784C3.16559 0.185442 3.49339 0.346997 3.77962 0.568005C4.06585 0.789013 4.30469 1.06497 4.48199 1.37956C4.65495 1.06205 4.89047 0.782595 5.17442 0.557935C5.45838 0.333275 5.78493 0.168041 6.13452 0.0721261C6.49478 -0.019435 6.87177 -0.0238861 7.2341 0.0591428C7.59644 0.142172 7.93362 0.310277 8.21753 0.549449C8.58984 0.920585 8.84381 1.39302 8.94757 1.90746C9.05134 2.4219 9.00027 2.95542 8.80077 3.44104C8.38273 4.40604 7.64834 5.20113 6.71776 5.69621C6.0553 6.13044 5.31505 6.4334 4.53753 6.58858C3.76065 6.43902 3.0188 6.14572 2.35037 5.72387C1.40903 5.23971 0.660104 4.4521 0.225698 3.48947C0.0141441 3.01033 -0.050609 2.4796 0.039569 1.96391C0.129747 1.44823 0.370844 0.970584 0.732572 0.590953Z" fill="#FF5C5C"/>
</svg>
