<svg width="7" height="5" viewBox="0 0 7 5" fill="none" xmlns="http://www.w3.org/2000/svg">
<path d="M2.22284 0.53943L2.38442 1.59629C2.3884 1.62022 2.38755 1.64471 2.3819 1.66831C2.37625 1.6919 2.36592 1.71415 2.35152 1.73371C2.33712 1.75327 2.31894 1.76977 2.29805 1.78223C2.27716 1.79469 2.25397 1.80286 2.22986 1.80627H2.16664C1.82757 1.7047 1.466 1.7047 1.12692 1.80627C0.966454 1.85782 0.821721 1.94906 0.706239 2.07146C0.590758 2.19386 0.508301 2.34342 0.466569 2.50618C0.382267 2.84214 0.536818 3.01711 0.909148 3.07311C1.28007 3.11879 1.65522 3.11879 2.02614 3.07311C2.07313 3.06831 2.12028 3.08053 2.15898 3.10752C2.19767 3.1345 2.22533 3.17446 2.23689 3.22009C2.31406 3.49259 2.49575 3.72389 2.7427 3.86401C2.8634 3.93207 2.99734 3.97353 3.1355 3.98561C3.27366 3.99768 3.41281 3.98009 3.54356 3.934C3.67629 3.88918 3.79871 3.81841 3.90365 3.72588C4.0086 3.63334 4.09396 3.52088 4.15475 3.39507C4.26705 3.11279 4.31504 2.80918 4.29524 2.50618H4.69568C4.71412 2.68554 4.79406 2.85308 4.92203 2.98058C5.04999 3.10807 5.21816 3.18771 5.39819 3.20609C5.58154 3.26686 5.77838 3.27479 5.96605 3.22898C6.15373 3.18316 6.3246 3.08546 6.45898 2.94713C6.57182 2.79786 6.63285 2.61606 6.63285 2.42919C6.63285 2.24232 6.57182 2.06052 6.45898 1.91125C6.33233 1.76792 6.16693 1.66397 5.98254 1.61184C5.79815 1.55971 5.6026 1.5616 5.41926 1.61729H5.37008C5.32629 1.63058 5.27903 1.62632 5.23835 1.6054C5.19767 1.58448 5.1668 1.54857 5.15231 1.50531C4.98444 1.04185 4.92907 0.545365 4.99073 0.05649C4.99415 0.0391675 5.00402 0.0237699 5.01835 0.0133863C5.03268 0.00300266 5.05042 -0.00160126 5.06801 0.000495788C5.08353 0.0022246 5.09786 0.00961543 5.10824 0.0212466C5.11862 0.0328778 5.12431 0.0479235 5.12421 0.0634852C5.15026 0.512535 5.28265 0.949063 5.51058 1.33733L5.26471 1.23934C5.52501 1.15932 5.80304 1.15641 6.06496 1.23097C6.32689 1.30553 6.5614 1.45434 6.73998 1.65929C6.9086 1.87813 7.00001 2.1463 7.00001 2.42219C7.00001 2.69808 6.9086 2.96625 6.73998 3.18509C6.56536 3.4061 6.31537 3.55554 6.03747 3.60504C5.78257 3.65748 5.51961 3.65748 5.26471 3.60504C4.9884 3.56223 4.73611 3.42361 4.55233 3.21362C4.36856 3.00363 4.26507 2.73575 4.26012 2.45719C4.2689 2.41069 4.29372 2.36869 4.33028 2.33848C4.36683 2.30827 4.41284 2.29174 4.46033 2.29174C4.50783 2.29174 4.55384 2.30827 4.59039 2.33848C4.62695 2.36869 4.65177 2.41069 4.66055 2.45719C4.68176 2.82104 4.61928 3.1849 4.4779 3.52105C4.39704 3.69719 4.28036 3.8547 4.13525 3.98361C3.99014 4.11252 3.81976 4.21003 3.63488 4.26996C3.45043 4.33085 3.2553 4.35296 3.06183 4.33489C2.86836 4.31682 2.68075 4.25895 2.51087 4.16497C2.33991 4.07133 2.18962 3.94437 2.06893 3.79166C1.94824 3.63895 1.85962 3.46362 1.80836 3.27609L2.01911 3.42306C1.61335 3.47537 1.20251 3.47537 0.796749 3.42306C0.552104 3.39457 0.325552 3.28048 0.157463 3.10111C0.0817038 2.99623 0.0314731 2.87523 0.0107455 2.74768C-0.00998214 2.62013 -0.000636875 2.48953 0.0380372 2.3662C0.101222 2.14636 0.217498 1.9453 0.376702 1.78058C0.535906 1.61587 0.733187 1.49251 0.951297 1.42131C1.36808 1.29514 1.81308 1.29514 2.22986 1.42131L1.97697 1.61729L2.02614 0.546426C2.0261 0.533864 2.02868 0.521433 2.0337 0.509911C2.03872 0.49839 2.04608 0.488032 2.05532 0.479485C2.06456 0.470937 2.07548 0.464388 2.08738 0.46025C2.09929 0.456112 2.11192 0.454478 2.12449 0.455444C2.13649 0.454489 2.14856 0.4559 2.16001 0.45961C2.17146 0.463319 2.18206 0.469255 2.1912 0.47706C2.20034 0.484866 2.20784 0.49439 2.21327 0.505095C2.2187 0.515799 2.22196 0.527469 2.22284 0.53943Z" fill="#4F2014"/>
</svg>
