<svg width="11" height="8" viewBox="0 0 11 8" fill="none" xmlns="http://www.w3.org/2000/svg">
<path opacity="0.3" d="M9.83828 0.837243C9.50656 0.55306 9.11173 0.351587 8.68641 0.249466C8.26109 0.147345 7.81749 0.147499 7.39225 0.249929C6.9807 0.358142 6.59523 0.547796 6.2588 0.807587C5.92238 1.06738 5.6419 1.39199 5.43407 1.76208C5.23283 1.38864 4.95715 1.06008 4.62392 0.796576C4.29069 0.533069 3.90694 0.340161 3.49622 0.229678C3.07337 0.119674 2.6301 0.113173 2.20418 0.210735C1.77827 0.308298 1.38236 0.507031 1.05019 0.789983C0.618034 1.22475 0.32346 1.77634 0.203014 2.37635C0.0825671 2.97635 0.141545 3.59839 0.372624 4.16532C0.87023 5.30022 1.73979 6.2332 2.83898 6.81156C3.61844 7.31892 4.48761 7.674 5.4002 7.8579V7.8579C6.31554 7.68377 7.18931 7.33786 7.97496 6.83857C9.08141 6.27407 9.96113 5.34997 10.4684 4.21931C10.7078 3.65612 10.7757 3.03524 10.6637 2.4339C10.5516 1.83256 10.2646 1.27732 9.83828 0.837243Z" stroke="#FF5C5C" stroke-width="0.28" stroke-linecap="round" stroke-linejoin="round"/>
</svg>
