<svg width="25" height="25" viewBox="0 0 25 25" fill="none" xmlns="http://www.w3.org/2000/svg">
<path d="M0 24.9999L1.76625 18.575C0.398857 16.2119 -0.147171 13.4658 0.212827 10.7624C0.572825 8.05897 1.81874 5.54929 3.7574 3.62244C5.69606 1.6956 8.21917 0.459215 10.9356 0.10499C13.6519 -0.249236 16.4098 0.298482 18.7817 1.66323C21.1536 3.02797 23.0069 5.1335 24.0543 7.65338C25.1017 10.1733 25.2847 12.9667 24.5749 15.6007C23.8652 18.2346 22.3023 20.5619 20.1286 22.2217C17.9549 23.8815 15.2918 24.7812 12.5522 24.7811H12.5478C10.4697 24.7795 8.42493 24.2611 6.59925 23.273L0 24.9999ZM6.90453 21.0338L7.2822 21.257C9.46083 22.5407 12.0366 22.9848 14.5221 22.5053C17.0075 22.0259 19.2302 20.6561 20.7693 18.6552C22.3085 16.6543 23.0574 14.1611 22.8743 11.6476C22.6911 9.13412 21.5887 6.77464 19.7756 5.01578C17.9624 3.25691 15.5645 2.22069 13.0355 2.10324C10.5066 1.9858 8.02214 2.79528 6.0524 4.37847C4.08265 5.96166 2.7643 8.20872 2.34686 10.6943C1.92943 13.18 2.44187 15.7317 3.7872 17.8665L4.03404 18.2555L2.98737 22.0566L6.90278 21.0338H6.90453ZM15.7873 18.3423C15.3789 18.3445 14.9728 18.283 14.5836 18.16C13.9813 17.974 13.3894 17.7563 12.8104 17.5079C10.6812 16.4642 8.86728 14.8784 7.55259 12.9115L7.50113 12.836C6.76566 11.9181 6.32225 10.8025 6.22768 9.63219C6.21647 9.1649 6.3018 8.70029 6.4784 8.26717C6.65499 7.83405 6.91908 7.44166 7.25429 7.11432L7.31534 7.04833C7.41894 6.9299 7.54622 6.83429 7.68905 6.76761C7.83188 6.70093 7.98711 6.66466 8.14483 6.6611C8.34457 6.6611 8.55565 6.6611 8.74056 6.67239H8.83912C9.03101 6.67239 9.23511 6.71319 9.44095 7.20288C9.52818 7.4017 9.64418 7.69343 9.7724 8.00339V8.01207C10.0402 8.66151 10.3437 9.3969 10.396 9.50196C10.4458 9.58297 10.4742 9.67513 10.4788 9.76995C10.4834 9.86478 10.4639 9.95922 10.4222 10.0446L10.3795 10.1314C10.3119 10.2883 10.2217 10.4346 10.1117 10.5655C10.0594 10.6263 10.0053 10.6914 9.9512 10.7574C9.84654 10.8851 9.73838 11.0179 9.64505 11.1047C9.49503 11.2541 9.32495 11.4234 9.50811 11.7368C9.97474 12.5332 10.558 13.256 11.2386 13.8813C11.917 14.4886 12.6938 14.9771 13.536 15.3261C13.6233 15.3634 13.6896 15.3921 13.7401 15.4172C13.8437 15.4762 13.9595 15.5104 14.0786 15.5171C14.1439 15.515 14.2079 15.4983 14.2659 15.4682C14.3239 15.4382 14.3743 15.3955 14.4135 15.3434C14.5565 15.1802 15.1819 14.4526 15.3982 14.1279C15.4329 14.06 15.4851 14.0024 15.5495 13.9612C15.6139 13.92 15.6881 13.8966 15.7646 13.8935C15.8796 13.9013 15.9926 13.9283 16.0986 13.9734C16.3786 14.0758 17.8684 14.8034 18.2234 14.9805L18.3978 15.0673C18.5611 15.122 18.7074 15.2177 18.8226 15.3452C18.9086 15.8442 18.8455 16.3575 18.6412 16.8212C18.413 17.1987 18.1085 17.5248 17.7469 17.7789C17.3853 18.033 16.9746 18.2095 16.5409 18.2972C16.2912 18.3317 16.0393 18.3477 15.7873 18.3449V18.3423Z" fill="#FDFDFD"/>
</svg>
