<svg width="1" height="3" viewBox="0 0 1 3" fill="none" xmlns="http://www.w3.org/2000/svg">
<path d="M0.252738 2.99999C0.186942 3.00002 0.123728 2.97449 0.0765332 2.92881C0.0293387 2.88314 0.0018799 2.82092 0 2.75539V0.251781C0 0.218715 0.00653692 0.185992 0.019238 0.155442C0.031939 0.124893 0.0505526 0.0971289 0.0740211 0.0737472C0.0974896 0.0503656 0.125356 0.0318209 0.156019 0.0191668C0.186682 0.00651274 0.219549 0 0.252738 0C0.318508 0.00187294 0.380937 0.0292082 0.426784 0.0762282C0.47263 0.123248 0.498275 0.186228 0.498248 0.251781V2.75539C0.498248 2.82026 0.472385 2.88248 0.426343 2.92835C0.3803 2.97422 0.317852 2.99999 0.252738 2.99999Z" fill="#45596D"/>
</svg>
