<svg width="12" height="12" viewBox="0 0 12 12" fill="none" xmlns="http://www.w3.org/2000/svg">
<path d="M1.3279 1.67553C1.43112 1.17144 1.66601 0.703394 2.00885 0.318666C2.18939 0.136557 2.42938 0.024822 2.68542 0.00366844C2.94145 -0.0174851 3.19663 0.05334 3.40481 0.203334C3.98362 0.739296 3.48653 1.72303 3.70443 2.47609C3.81065 2.75298 3.9857 2.99846 4.21319 3.18951C4.44068 3.38056 4.71317 3.51092 5.00505 3.56837C5.58925 3.6804 6.18106 3.74842 6.77551 3.77189C8.18569 3.98226 9.47812 4.67595 10.4302 5.73349C11.3823 6.79103 11.9344 8.14623 11.9916 9.56571C12.0398 10.1023 11.8789 10.6368 11.5422 11.0583C11.275 11.2669 10.9688 11.4206 10.6415 11.5102C10.3142 11.5999 9.97222 11.6239 9.63552 11.5807C7.80984 11.6454 5.98262 11.5066 4.1879 11.1668C2.59448 10.7937 -0.0135659 9.9592 5.31252e-05 8.05281C0.155569 5.87761 0.602127 3.73287 1.3279 1.67553Z" fill="#EEB399"/>
</svg>
