<svg width="139" height="139" viewBox="0 0 139 139" fill="none" xmlns="http://www.w3.org/2000/svg">
<g style="mix-blend-mode:multiply" opacity="0.5">
<path d="M126.629 137.986L5.96088 132.168C5.20707 132.13 4.46807 131.945 3.7861 131.623C3.10412 131.3 2.49253 130.847 1.98624 130.29C1.47996 129.732 1.08891 129.08 0.835409 128.372C0.581913 127.664 0.470945 126.913 0.508836 126.162L6.34266 5.9464C6.42241 4.43033 7.10119 3.00732 8.23069 1.98828C9.36018 0.969239 10.8486 0.437008 12.3707 0.507855L133.039 6.32676C133.793 6.36438 134.532 6.54957 135.214 6.87176C135.896 7.19395 136.507 7.64682 137.014 8.20452C137.52 8.76222 137.911 9.41382 138.165 10.1221C138.418 10.8304 138.529 11.5815 138.491 12.3325L132.657 132.548C132.578 134.064 131.899 135.487 130.769 136.506C129.64 137.525 128.151 138.057 126.629 137.986V137.986Z" stroke="#808285" stroke-miterlimit="10"/>
<path d="M128.447 14.0174L15.3854 8.56731L10.7409 104.207L123.802 109.657L128.447 14.0174Z" stroke="#808285" stroke-miterlimit="10"/>
<path d="M23.6364 121.29V121.244H23.9981V121.304C23.9906 121.373 23.9981 121.442 24.02 121.508C24.042 121.573 24.0779 121.634 24.1254 121.684C24.2297 121.78 24.3654 121.834 24.5072 121.838C24.5823 121.844 24.6581 121.835 24.7296 121.811C24.8011 121.787 24.8668 121.748 24.9224 121.698C25.0256 121.581 25.0849 121.432 25.0899 121.277V121.15C25.1007 120.99 25.0531 120.831 24.9559 120.703C24.9031 120.646 24.839 120.599 24.7676 120.567C24.6962 120.535 24.619 120.518 24.5406 120.516H24.3665V120.196H24.5808C24.6513 120.202 24.7223 120.193 24.7892 120.17C24.8561 120.147 24.9174 120.111 24.9693 120.063C25.0715 119.957 25.129 119.816 25.1301 119.669V119.569C25.1428 119.427 25.0996 119.286 25.0095 119.175C24.9658 119.122 24.9106 119.079 24.8479 119.05C24.7853 119.021 24.7168 119.007 24.6478 119.008C24.5805 118.999 24.5121 119.005 24.4474 119.026C24.3827 119.046 24.3233 119.08 24.2734 119.126C24.2236 119.172 24.1844 119.228 24.1588 119.291C24.1333 119.354 24.1218 119.421 24.1254 119.489V119.562H23.7838V119.475C23.7835 119.366 23.806 119.258 23.8499 119.158C23.8937 119.059 23.9578 118.969 24.0383 118.895C24.1304 118.818 24.2377 118.762 24.3532 118.73C24.4686 118.698 24.5895 118.69 24.7081 118.708C24.8216 118.707 24.9342 118.729 25.039 118.772C25.1438 118.816 25.2386 118.88 25.3176 118.962C25.3922 119.046 25.4486 119.144 25.4832 119.251C25.5177 119.358 25.5298 119.471 25.5185 119.582V119.689C25.5162 119.838 25.467 119.983 25.3779 120.103C25.3 120.219 25.1875 120.307 25.0564 120.356C25.2067 120.415 25.3303 120.527 25.4047 120.67C25.4816 120.825 25.5162 120.998 25.5051 121.17V121.244C25.5063 121.368 25.482 121.492 25.4336 121.606C25.3852 121.721 25.3138 121.825 25.2238 121.911C25.1327 121.991 25.0264 122.051 24.9114 122.089C24.7963 122.127 24.6748 122.141 24.554 122.131C24.3182 122.132 24.0908 122.044 23.9177 121.884C23.8286 121.813 23.7569 121.723 23.7081 121.62C23.6594 121.517 23.6348 121.404 23.6364 121.29Z" fill="#808285"/>
<path d="M27.5949 121.577V122.245H27.2333L27.2667 121.577L26.0008 121.517V121.197L27.1328 118.861H27.4878L26.3625 121.197L27.26 121.244L27.3069 120.323H27.6619L27.6217 121.237H27.9901V121.557L27.5949 121.577Z" fill="#808285"/>
<path d="M28.5126 121.551V121.491H28.8542V121.524C28.8446 121.59 28.8499 121.657 28.8696 121.72C28.8893 121.784 28.9229 121.842 28.9681 121.891C29.0167 121.939 29.0743 121.976 29.1375 122.001C29.2008 122.026 29.2684 122.039 29.3365 122.038C29.6781 122.038 29.8589 121.851 29.879 121.431V121.11C29.8972 120.941 29.8596 120.77 29.7718 120.623C29.7278 120.566 29.6708 120.521 29.6055 120.491C29.5403 120.461 29.4686 120.447 29.3967 120.45C29.2889 120.441 29.1811 120.467 29.0886 120.523C28.9995 120.58 28.9313 120.664 28.8944 120.763H28.5796L28.6667 118.922L30.2809 119.002V119.329L28.9949 119.262L28.9413 120.336C29.0083 120.272 29.0882 120.222 29.1757 120.189C29.3311 120.135 29.4992 120.128 29.6588 120.168C29.8185 120.208 29.9626 120.295 30.0732 120.416C30.216 120.623 30.2779 120.875 30.2474 121.124V121.491C30.2506 121.739 30.1569 121.978 29.9862 122.158C29.8967 122.24 29.7905 122.301 29.6749 122.338C29.5592 122.375 29.4369 122.386 29.3164 122.372C29.0876 122.373 28.867 122.287 28.7002 122.131C28.6297 122.053 28.5766 121.961 28.5443 121.861C28.5119 121.761 28.5012 121.655 28.5126 121.551Z" fill="#808285"/>
<path d="M48.7936 120.737V120.336L49.3964 119.923H49.7514L49.5906 123.259H49.2356L49.383 120.303L48.7936 120.737Z" fill="#808285"/>
<path d="M50.3609 122.438V122.271C50.363 122.153 50.3857 122.035 50.4278 121.924C50.4723 121.799 50.5283 121.679 50.5953 121.564L51.4593 120.023H51.8277L51.0306 121.464C51.0807 121.434 51.1349 121.412 51.1914 121.397C51.2602 121.387 51.3302 121.387 51.399 121.397C51.5125 121.396 51.625 121.42 51.7281 121.467C51.8312 121.514 51.9224 121.584 51.9951 121.671C52.1447 121.86 52.2166 122.098 52.1961 122.338V122.505C52.1921 122.684 52.1413 122.859 52.0487 123.012C51.9658 123.144 51.8475 123.251 51.7071 123.319C51.5597 123.391 51.3956 123.424 51.2316 123.412C51.1057 123.416 50.9807 123.392 50.8651 123.342C50.7495 123.293 50.646 123.219 50.5618 123.126C50.4072 122.931 50.3351 122.685 50.3609 122.438ZM51.8478 122.518V122.351C51.8643 122.189 51.8162 122.026 51.7138 121.898C51.6647 121.839 51.6032 121.792 51.5338 121.76C51.4643 121.727 51.3886 121.711 51.312 121.711C51.2362 121.704 51.1599 121.714 51.0882 121.739C51.0166 121.764 50.9512 121.805 50.8967 121.858C50.7872 121.976 50.7272 122.131 50.7292 122.291V122.458C50.7115 122.624 50.7569 122.791 50.8565 122.925C50.9068 122.983 50.9685 123.029 51.0377 123.061C51.1069 123.093 51.182 123.111 51.2584 123.112C51.3358 123.12 51.4139 123.11 51.487 123.084C51.5601 123.057 51.6262 123.014 51.6803 122.959C51.788 122.837 51.8475 122.68 51.8478 122.518Z" fill="#808285"/>
<path d="M43.5492 124.954C44.2755 124.415 44.7876 123.638 44.9951 122.76C45.2026 121.881 45.0923 120.958 44.6835 120.153C44.2748 119.348 43.5939 118.712 42.7608 118.359C41.9277 118.005 40.996 117.955 40.1299 118.219C39.2637 118.482 38.5188 119.042 38.0263 119.799C37.5339 120.556 37.3255 121.462 37.4381 122.358C37.5506 123.253 37.9767 124.08 38.6413 124.693C39.3059 125.306 40.1664 125.665 41.071 125.708C41.3718 125.723 41.6733 125.701 41.9685 125.641L43.9779 126.796L43.5492 124.954Z" stroke="#808285" stroke-linecap="round" stroke-linejoin="round"/>
<path d="M124.095 111.452L11.0341 106.001L10.9736 107.248L124.035 112.698L124.095 111.452Z" fill="#808285"/>
<path d="M60.4438 111.219L10.8975 108.831L10.837 110.078L60.3833 112.466L60.4438 111.219Z" fill="#808285"/>
<path d="M81.1349 115.055L10.7626 111.663L10.7021 112.909L81.0744 116.301L81.1349 115.055Z" fill="#808285"/>
<path d="M123.588 122.018L118.029 121.751L117.58 131.006L120.454 129.225L123.14 131.273L123.588 122.018Z" stroke="#808285" stroke-miterlimit="10"/>
<path d="M20.0666 117.714C19.7523 117.42 19.3715 117.205 18.9564 117.089C18.5413 116.973 18.1041 116.958 17.6821 117.046C17.2705 117.133 16.8806 117.301 16.5354 117.541C16.1903 117.78 15.8969 118.086 15.6728 118.441C15.4888 118.065 15.231 117.73 14.9146 117.454C14.5982 117.179 14.2297 116.97 13.8309 116.84C13.4185 116.71 12.9807 116.682 12.555 116.757C12.1293 116.833 11.7283 117.01 11.3862 117.273C10.9312 117.685 10.6088 118.221 10.4598 118.815C10.3108 119.409 10.3418 120.034 10.5489 120.61C10.9871 121.754 11.8017 122.716 12.8597 123.339C13.6045 123.877 14.4456 124.269 15.3379 124.494C16.2479 124.362 17.125 124.061 17.9232 123.606C19.0435 123.1 19.9576 122.229 20.5153 121.137C20.7919 120.587 20.897 119.967 20.817 119.357C20.737 118.747 20.4757 118.175 20.0666 117.714V117.714Z" stroke="#808285" stroke-linecap="round" stroke-linejoin="round"/>
</g>
</svg>
