<svg width="19" height="24" viewBox="0 0 19 24" fill="none" xmlns="http://www.w3.org/2000/svg">
<path d="M1.16649e-05 9.38145C0.000381662 7.56634 0.52915 5.7903 1.52223 4.26856C2.5153 2.74682 3.93005 1.5447 5.59505 0.807886C7.26004 0.071074 9.10379 -0.168804 10.9029 0.117324C12.7019 0.403453 14.3791 1.20331 15.7311 2.41995C17.0831 3.63659 18.0519 5.2178 18.5201 6.97194C18.9883 8.72609 18.9358 10.5779 18.3689 12.3029C17.8021 14.0279 16.7452 15.5521 15.3264 16.6907C13.9076 17.8294 12.1878 18.5336 10.3754 18.7181L7.29627 24L6.62689 18.358C4.70451 17.7637 3.02381 16.5714 1.83121 14.9559C0.638609 13.3404 -0.00315527 11.3868 1.16649e-05 9.38145Z" fill="white"/>
</svg>
