<svg width="13" height="9" viewBox="0 0 13 9" fill="none" xmlns="http://www.w3.org/2000/svg">
<path d="M12.5059 4.95779C12.5847 5.70074 12.4795 6.4516 12.1993 7.14459C12.0502 7.48467 11.7877 7.76299 11.4563 7.93249C11.1249 8.102 10.745 8.15229 10.3807 8.07485C10.0113 7.94989 9.68386 7.63749 9.30062 7.67914C8.91738 7.72079 8.60381 8.26923 8.22057 8.60246C7.86811 8.87909 7.42719 9.0195 6.97903 8.99781C6.53087 8.97612 6.10566 8.7938 5.78177 8.48444C5.55879 8.29006 5.34975 8.04014 5.08497 8.00543C4.42998 7.92212 4.02585 8.92874 3.37782 8.83849C2.87613 8.76907 2.68102 8.08873 2.15842 8.00543C1.88745 8.01695 1.61865 8.05888 1.35711 8.13039C1.12795 8.1271 0.904911 8.05606 0.716342 7.92628C0.527772 7.7965 0.382155 7.61383 0.29796 7.40146C0.132295 6.97477 0.0563947 6.51872 0.074979 6.0616L0.0122696 3.91646C-0.0234796 3.49578 0.0190573 3.07215 0.13771 2.66686C0.458238 1.81296 1.38498 1.36867 2.22811 1.05627C3.85269 0.400117 5.58314 0.042603 7.33564 0.00104616C8.80954 -0.0239612 10.256 0.39989 11.4816 1.21593C12.5338 1.95875 12.4711 3.71513 12.5059 4.95779Z" fill="#EEB399"/>
</svg>
