<svg width="149" height="148" viewBox="0 0 149 148" fill="none" xmlns="http://www.w3.org/2000/svg">
<g style="mix-blend-mode:multiply" opacity="0.5">
<path d="M124.86 147.447L5.43433 130.842C3.9316 130.628 2.57465 129.831 1.66011 128.624C0.745577 127.417 0.347837 125.899 0.553825 124.4L17.2211 5.41692C17.4333 3.91897 18.233 2.56596 19.4449 1.65448C20.6568 0.743009 22.182 0.347433 23.6861 0.55447L143.091 17.1534C144.594 17.3665 145.951 18.1637 146.866 19.3707C147.78 20.5776 148.178 22.0962 147.972 23.5945L131.325 142.585C131.109 144.081 130.309 145.432 129.098 146.343C127.887 147.254 126.363 147.651 124.86 147.447V147.447Z" stroke="#808285" stroke-miterlimit="10"/>
<path d="M137.669 24.7576L25.812 8.99791L12.3815 103.619L124.239 119.379L137.669 24.7576Z" stroke="#808285" stroke-width="0.99985" stroke-miterlimit="10"/>
<path d="M23.987 121.61V121.516L24.3413 121.563V121.629C24.3279 121.696 24.3294 121.764 24.3456 121.83C24.3617 121.895 24.3922 121.957 24.4349 122.009C24.4797 122.062 24.5347 122.106 24.5967 122.138C24.6586 122.17 24.7264 122.19 24.7959 122.196C24.8702 122.211 24.9471 122.211 25.0211 122.193C25.0951 122.176 25.1643 122.143 25.2238 122.096C25.3393 121.993 25.411 121.85 25.4244 121.696V121.57C25.4556 121.41 25.4219 121.245 25.3308 121.11C25.2842 121.048 25.225 120.996 25.157 120.958C25.0891 120.92 25.0139 120.897 24.9363 120.89H24.7625L24.8093 120.57H24.9764C25.0461 120.585 25.1182 120.585 25.1875 120.569C25.2569 120.553 25.3218 120.521 25.3776 120.477C25.4897 120.38 25.5612 120.245 25.5781 120.097V119.998C25.6019 119.857 25.5734 119.712 25.4979 119.591C25.4565 119.537 25.4043 119.492 25.3444 119.458C25.2846 119.425 25.2185 119.405 25.1503 119.398C25.0842 119.384 25.016 119.385 24.9502 119.4C24.8844 119.415 24.8227 119.444 24.7692 119.485C24.6651 119.57 24.5981 119.691 24.582 119.824V119.904L24.241 119.858V119.771C24.2494 119.662 24.2812 119.557 24.3343 119.461C24.3874 119.366 24.4604 119.283 24.5486 119.218C24.7422 119.1 24.9715 119.053 25.1964 119.086C25.4212 119.119 25.6273 119.229 25.7787 119.398C25.8495 119.492 25.8987 119.601 25.9229 119.716C25.9472 119.831 25.9459 119.95 25.9191 120.064V120.164C25.9045 120.314 25.8438 120.456 25.7453 120.57C25.6536 120.675 25.536 120.753 25.4043 120.797C25.5464 120.869 25.6578 120.99 25.7185 121.137C25.7815 121.298 25.8 121.472 25.772 121.643V121.756C25.7614 121.879 25.7249 121.998 25.665 122.106C25.6051 122.214 25.5231 122.308 25.4244 122.382C25.3299 122.453 25.2218 122.504 25.1068 122.531C24.9918 122.559 24.8723 122.562 24.7558 122.542C24.5223 122.522 24.305 122.415 24.1474 122.242C24.0767 122.154 24.0258 122.052 23.9981 121.943C23.9705 121.834 23.9667 121.72 23.987 121.61Z" fill="#808285"/>
<path d="M27.898 122.256L27.8111 122.922L27.4301 122.848L27.517 122.182L26.2668 122.009L26.3136 121.696L27.6507 119.471L28.005 119.525L26.6679 121.743L27.5638 121.869L27.6908 120.963L28.0451 121.01L27.9181 121.916L28.2791 121.969L28.239 122.282L27.898 122.256Z" fill="#808285"/>
<path d="M28.8139 122.309V122.242L29.1549 122.289V122.329C29.1424 122.393 29.143 122.46 29.1568 122.524C29.1706 122.588 29.1972 122.648 29.2351 122.702C29.3263 122.803 29.4533 122.865 29.5895 122.875C29.9304 122.928 30.131 122.742 30.1912 122.322L30.2313 122.009C30.2699 121.844 30.251 121.67 30.1778 121.516C30.1385 121.456 30.0852 121.405 30.0224 121.37C29.9596 121.334 29.8891 121.313 29.8168 121.31C29.7099 121.287 29.5981 121.303 29.5026 121.356C29.4078 121.403 29.3322 121.48 29.2886 121.576L28.9744 121.536L29.2285 119.711L30.8263 119.931L30.7862 120.257L29.5093 120.078L29.3622 121.143C29.4331 121.082 29.518 121.038 29.6095 121.017C29.7088 120.996 29.8111 120.996 29.9104 121.017C30.0241 121.023 30.1348 121.056 30.2335 121.113C30.3322 121.169 30.4161 121.248 30.4787 121.343C30.6015 121.559 30.6396 121.813 30.5856 122.056L30.5388 122.422C30.5326 122.549 30.501 122.673 30.4458 122.788C30.3907 122.902 30.3132 123.004 30.2179 123.088C30.1241 123.16 30.0158 123.211 29.9004 123.238C29.7851 123.264 29.6653 123.265 29.5494 123.242C29.3221 123.225 29.1106 123.12 28.961 122.948C28.8874 122.861 28.8356 122.758 28.8101 122.646C28.7845 122.535 28.7858 122.42 28.8139 122.309Z" fill="#808285"/>
<path d="M49.0447 123.315L49.0982 122.922L49.7668 122.562L50.1211 122.609L49.6531 125.939L49.3055 125.893L49.7133 122.968L49.0447 123.315Z" fill="#808285"/>
<path d="M50.4553 125.147V124.987C50.4745 124.87 50.5082 124.756 50.5556 124.647C50.6128 124.528 50.6799 124.415 50.7562 124.307L51.7524 122.849L52.1201 122.895L51.1974 124.261C51.2478 124.229 51.3053 124.211 51.3646 124.207C51.433 124.194 51.5034 124.194 51.5718 124.207C51.6843 124.219 51.7931 124.254 51.891 124.31C51.9889 124.366 52.0738 124.442 52.1401 124.534C52.2677 124.731 52.3177 124.968 52.2805 125.2V125.366C52.2614 125.544 52.1969 125.714 52.0933 125.859C51.9977 125.983 51.8708 126.08 51.7256 126.139C51.5694 126.195 51.4016 126.211 51.2376 126.186C51.1155 126.174 50.9971 126.137 50.89 126.078C50.783 126.018 50.6896 125.937 50.6158 125.839C50.5446 125.74 50.4937 125.628 50.4662 125.509C50.4386 125.39 50.435 125.267 50.4553 125.147ZM51.9195 125.366V125.2C51.9489 125.039 51.918 124.873 51.8326 124.734C51.7881 124.672 51.7311 124.621 51.6655 124.583C51.5998 124.545 51.5269 124.522 51.4515 124.514C51.3766 124.501 51.3001 124.505 51.2265 124.523C51.1529 124.541 51.0838 124.574 51.0236 124.62C50.9059 124.731 50.8323 124.88 50.8164 125.04V125.206C50.7869 125.367 50.8179 125.533 50.9033 125.673C50.9458 125.736 51.0021 125.79 51.0681 125.829C51.134 125.868 51.2079 125.892 51.2844 125.899C51.3597 125.912 51.4369 125.909 51.5108 125.889C51.5847 125.87 51.6534 125.835 51.7122 125.786C51.83 125.676 51.9036 125.527 51.9195 125.366Z" fill="#808285"/>
<path d="M43.4756 127.045C44.2465 126.575 44.8259 125.848 45.1119 124.994C45.3979 124.14 45.372 123.212 45.0388 122.375C44.7057 121.538 44.0866 120.845 43.2907 120.418C42.4949 119.991 41.5733 119.858 40.6884 120.041C39.8035 120.225 39.0122 120.714 38.4538 121.422C37.8954 122.131 37.6058 123.012 37.6361 123.912C37.6664 124.813 38.0146 125.673 38.6193 126.342C39.2241 127.012 40.0465 127.447 40.9418 127.571C41.2395 127.604 41.5399 127.604 41.8376 127.571L43.7163 128.903L43.4756 127.045Z" stroke="#808285" stroke-linecap="round" stroke-linejoin="round"/>
<path d="M124.766 120.821L12.8619 105.271L12.6892 106.505L124.593 122.055L124.766 120.821Z" fill="#808285"/>
<path d="M61.5104 114.893L12.4713 108.078L12.2986 109.312L61.3377 116.126L61.5104 114.893Z" fill="#808285"/>
<path d="M81.7278 120.559L12.0759 110.88L11.9032 112.114L81.5551 121.793L81.7278 120.559Z" fill="#808285"/>
<path d="M123.289 131.301L117.786 130.535L116.503 139.701L119.518 138.182L122.005 140.467L123.289 131.301Z" stroke="#808285" stroke-miterlimit="10"/>
<path d="M20.7444 117.733C20.4584 117.41 20.0994 117.161 19.697 117.004C19.2947 116.848 18.8607 116.789 18.4312 116.834C18.0156 116.882 17.6142 117.014 17.2512 117.221C16.8881 117.429 16.5709 117.707 16.3185 118.039C16.1706 117.648 15.9451 117.291 15.6557 116.989C15.3662 116.687 15.0187 116.446 14.6337 116.281C14.2348 116.114 13.8014 116.047 13.3706 116.084C12.9397 116.121 12.5244 116.262 12.1601 116.494C11.674 116.861 11.3074 117.362 11.1064 117.936C10.9054 118.509 10.8789 119.129 11.0302 119.718C11.3622 120.896 12.0858 121.927 13.0827 122.642C13.7725 123.244 14.5712 123.71 15.436 124.014V124.014C16.3626 123.969 17.2713 123.743 18.1103 123.348C19.2678 122.943 20.2546 122.162 20.9115 121.13C21.2202 120.609 21.3689 120.01 21.3392 119.406C21.3095 118.803 21.1027 118.221 20.7444 117.733V117.733Z" stroke="#808285" stroke-linecap="round" stroke-linejoin="round"/>
</g>
</svg>
